<svg xmlns="http://www.w3.org/2000/svg" xmlns:xlink="http://www.w3.org/1999/xlink" contentStyleType="text/css" data-diagram-type="ACTIVITY" height="724px" preserveAspectRatio="none" style="width:897px;height:724px;background:#FFFFFF;" version="1.1" viewBox="0 0 897 724" width="897px" zoomAndPan="magnify"><?plantuml 1.2026.6?><defs/><g><g class="title" data-source-line="2"><text fill="#000000" font-family="sans-serif" font-size="14" font-weight="700" lengthAdjust="spacing" textLength="454.2207" x="220.853" y="33.5352">Actividad &#8212; Sincronizaci&#243;n con el ERP externo (patr&#243;n Outbox)</text></g><rect fill="none" height="21.1992" style="stroke:none;stroke-width:1;" width="850.9268" x="20" y="54.7852"/><ellipse cx="285.3074" cy="90.9844" fill="#222222" rx="10" ry="10" style="stroke:#222222;stroke-width:1;"/><rect fill="#F1F1F1" height="48.2656" rx="12.5" ry="12.5" style="stroke:#181818;stroke-width:0.5;" width="203.4336" x="183.5906" y="120.9844"/><text fill="#000000" font-family="sans-serif" font-size="12" lengthAdjust="spacing" textLength="183.4336" x="193.5906" y="142.5859">Consumir EventoSincronizacion</text><text fill="#000000" font-family="sans-serif" font-size="12" lengthAdjust="spacing" textLength="98.5547" x="193.5906" y="156.7188">de la cola (Redis)</text><rect fill="#F1F1F1" height="62.3984" rx="12.5" ry="12.5" style="stroke:#181818;stroke-width:0.5;" width="215.7852" x="177.4148" y="189.25"/><text fill="#000000" font-family="sans-serif" font-size="12" lengthAdjust="spacing" textLength="188.0918" x="187.4148" y="210.8516">ProviderAdapterFactory resuelve</text><text fill="#000000" font-family="sans-serif" font-size="12" lengthAdjust="spacing" textLength="112.2363" x="187.4148" y="224.9844">el adaptador seg&#250;n</text><text fill="#000000" font-family="sans-serif" font-size="12" lengthAdjust="spacing" textLength="195.7852" x="187.4148" y="239.1172">Proveedor.IntegracionERP.tipoERP</text><rect fill="#F1F1F1" height="48.2656" rx="12.5" ry="12.5" style="stroke:#181818;stroke-width:0.5;" width="204.7871" x="182.9138" y="271.6484"/><text fill="#000000" font-family="sans-serif" font-size="12" lengthAdjust="spacing" textLength="180.4219" x="192.9138" y="293.25">Adaptador invoca notifySale() /</text><text fill="#000000" font-family="sans-serif" font-size="12" lengthAdjust="spacing" textLength="184.7871" x="192.9138" y="307.3828">updateStock() en el ERP externo</text><polygon fill="#F1F1F1" points="232.4397,339.9141,338.175,339.9141,350.175,351.9141,338.175,363.9141,232.4397,363.9141,220.4397,351.9141,232.4397,339.9141" style="stroke:#181818;stroke-width:0.5;stroke-linejoin:miter;stroke-miterlimit:10;"/><text fill="#000000" font-family="sans-serif" font-size="11" lengthAdjust="spacing" textLength="105.7354" x="232.4397" y="356.0713">&#191;Respuesta exitosa?</text><text fill="#000000" font-family="sans-serif" font-size="11" lengthAdjust="spacing" textLength="8.7871" x="211.6526" y="349.5938">s&#237;</text><text fill="#000000" font-family="sans-serif" font-size="11" lengthAdjust="spacing" textLength="13.5835" x="350.175" y="349.5938">no</text><rect fill="#F1F1F1" height="34.1328" rx="12.5" ry="12.5" style="stroke:#181818;stroke-width:0.5;" width="213.3301" x="26" y="383.9141"/><text fill="#000000" font-family="sans-serif" font-size="12" lengthAdjust="spacing" textLength="193.3301" x="36" y="405.5156">Marcar evento como PROCESADO</text><rect fill="#F1F1F1" height="48.2656" rx="12.5" ry="12.5" style="stroke:#181818;stroke-width:0.5;" width="183.3008" x="41.0146" y="438.0469"/><text fill="#000000" font-family="sans-serif" font-size="12" lengthAdjust="spacing" textLength="58.3418" x="51.0146" y="459.6484">Actualizar</text><text fill="#000000" font-family="sans-serif" font-size="12" lengthAdjust="spacing" textLength="163.3008" x="51.0146" y="473.7813">ultimaSincronizacionExitosa</text><ellipse cx="132.665" cy="532.3125" fill="none" rx="11" ry="11" style="stroke:#222222;stroke-width:1;"/><ellipse cx="132.665" cy="532.3125" fill="#222222" rx="6" ry="6" style="stroke:#222222;stroke-width:1;"/><rect fill="#F1F1F1" height="34.1328" rx="12.5" ry="12.5" style="stroke:#181818;stroke-width:0.5;" width="215.0645" x="330.4175" y="383.9141"/><text fill="#000000" font-family="sans-serif" font-size="12" lengthAdjust="spacing" textLength="195.0645" x="340.4175" y="405.5156">Incrementar contador de intentos</text><polygon fill="#F1F1F1" points="384.3569,438.0469,491.5425,438.0469,503.5425,451.002,491.5425,463.957,384.3569,463.957,372.3569,451.002,384.3569,438.0469" style="stroke:#181818;stroke-width:0.5;stroke-linejoin:miter;stroke-miterlimit:10;"/><text fill="#000000" font-family="sans-serif" font-size="11" lengthAdjust="spacing" textLength="107.1855" x="384.3569" y="448.6816">&#191;Intentos &lt; m&#225;ximo</text><text fill="#000000" font-family="sans-serif" font-size="11" lengthAdjust="spacing" textLength="69.0239" x="384.3569" y="461.6367">configurado?</text><text fill="#000000" font-family="sans-serif" font-size="11" lengthAdjust="spacing" textLength="8.7871" x="363.5698" y="448.6816">s&#237;</text><text fill="#000000" font-family="sans-serif" font-size="11" lengthAdjust="spacing" textLength="13.5835" x="503.5425" y="448.6816">no</text><rect fill="#F1F1F1" height="48.2656" rx="12.5" ry="12.5" style="stroke:#181818;stroke-width:0.5;" width="137.5918" x="269.3301" y="483.957"/><text fill="#000000" font-family="sans-serif" font-size="12" lengthAdjust="spacing" textLength="84.5977" x="279.3301" y="505.5586">Reintentar con</text><text fill="#000000" font-family="sans-serif" font-size="12" lengthAdjust="spacing" textLength="117.5918" x="279.3301" y="519.6914">backoff exponencial</text><ellipse cx="338.126" cy="578.2227" fill="none" rx="11" ry="11" style="stroke:#222222;stroke-width:1;"/><ellipse cx="338.126" cy="578.2227" fill="#222222" rx="6" ry="6" style="stroke:#222222;stroke-width:1;"/><rect fill="#F1F1F1" height="34.1328" rx="12.5" ry="12.5" style="stroke:#181818;stroke-width:0.5;" width="191.2051" x="442.1709" y="483.957"/><text fill="#000000" font-family="sans-serif" font-size="12" lengthAdjust="spacing" textLength="171.2051" x="452.1709" y="505.5586">Marcar evento como FALLIDO</text><line style="stroke:#000000;stroke-width:1.5;" x1="20" x2="20" y1="54.7852" y2="703.6211"/><rect fill="#F1F1F1" height="76.5313" rx="12.5" ry="12.5" style="stroke:#181818;stroke-width:0.5;" width="221.7031" x="643.376" y="553.0898"/><text fill="#000000" font-family="sans-serif" font-size="12" lengthAdjust="spacing" textLength="169.752" x="653.376" y="574.6914">Ver evento fallido en el panel</text><text fill="#000000" font-family="sans-serif" font-size="12" lengthAdjust="spacing" textLength="172.1426" x="653.376" y="588.8242">(UC10 &#8212; Consultar estado de</text><text fill="#000000" font-family="sans-serif" font-size="12" lengthAdjust="spacing" textLength="201.7031" x="653.376" y="602.957">sincronizaci&#243;n) para reconciliaci&#243;n</text><text fill="#000000" font-family="sans-serif" font-size="12" lengthAdjust="spacing" textLength="42.8203" x="653.376" y="617.0898">manual</text><ellipse cx="754.2275" cy="660.6211" fill="none" rx="11" ry="11" style="stroke:#222222;stroke-width:1;"/><ellipse cx="754.2275" cy="660.6211" fill="#222222" rx="6" ry="6" style="stroke:#222222;stroke-width:1;"/><line style="stroke:#000000;stroke-width:1.5;" x1="637.376" x2="637.376" y1="54.7852" y2="703.6211"/><line style="stroke:#000000;stroke-width:1.5;" x1="869.0791" x2="869.0791" y1="54.7852" y2="703.6211"/><line style="stroke:#181818;stroke-width:1;" x1="285.3074" x2="285.3074" y1="100.9844" y2="120.9844"/><polygon fill="#181818" points="281.3074,110.9844,285.3074,120.9844,289.3074,110.9844,285.3074,114.9844" style="stroke:#181818;stroke-width:1;stroke-linejoin:miter;stroke-miterlimit:10;"/><line style="stroke:#181818;stroke-width:1;" x1="285.3074" x2="285.3074" y1="169.25" y2="189.25"/><polygon fill="#181818" points="281.3074,179.25,285.3074,189.25,289.3074,179.25,285.3074,183.25" style="stroke:#181818;stroke-width:1;stroke-linejoin:miter;stroke-miterlimit:10;"/><line style="stroke:#181818;stroke-width:1;" x1="285.3074" x2="285.3074" y1="251.6484" y2="271.6484"/><polygon fill="#181818" points="281.3074,261.6484,285.3074,271.6484,289.3074,261.6484,285.3074,265.6484" style="stroke:#181818;stroke-width:1;stroke-linejoin:miter;stroke-miterlimit:10;"/><line style="stroke:#181818;stroke-width:1;" x1="132.665" x2="132.665" y1="418.0469" y2="438.0469"/><polygon fill="#181818" points="128.665,428.0469,132.665,438.0469,136.665,428.0469,132.665,432.0469" style="stroke:#181818;stroke-width:1;stroke-linejoin:miter;stroke-miterlimit:10;"/><line style="stroke:#181818;stroke-width:1;" x1="132.665" x2="132.665" y1="486.3125" y2="521.3125"/><polygon fill="#181818" points="128.665,511.3125,132.665,521.3125,136.665,511.3125,132.665,515.3125" style="stroke:#181818;stroke-width:1;stroke-linejoin:miter;stroke-miterlimit:10;"/><line style="stroke:#181818;stroke-width:1;" x1="338.126" x2="338.126" y1="532.2227" y2="567.2227"/><polygon fill="#181818" points="334.126,557.2227,338.126,567.2227,342.126,557.2227,338.126,561.2227" style="stroke:#181818;stroke-width:1;stroke-linejoin:miter;stroke-miterlimit:10;"/><line style="stroke:#181818;stroke-width:1;" x1="372.3569" x2="338.126" y1="451.002" y2="451.002"/><line style="stroke:#181818;stroke-width:1;" x1="338.126" x2="338.126" y1="451.002" y2="483.957"/><polygon fill="#181818" points="334.126,473.957,338.126,483.957,342.126,473.957,338.126,477.957" style="stroke:#181818;stroke-width:1;stroke-linejoin:miter;stroke-miterlimit:10;"/><line style="stroke:#181818;stroke-width:1;" x1="503.5425" x2="537.7734" y1="451.002" y2="451.002"/><line style="stroke:#181818;stroke-width:1;" x1="537.7734" x2="537.7734" y1="451.002" y2="483.957"/><polygon fill="#181818" points="533.7734,473.957,537.7734,483.957,541.7734,473.957,537.7734,477.957" style="stroke:#181818;stroke-width:1;stroke-linejoin:miter;stroke-miterlimit:10;"/><line style="stroke:#181818;stroke-width:1;" x1="437.9497" x2="437.9497" y1="418.0469" y2="438.0469"/><polygon fill="#181818" points="433.9497,428.0469,437.9497,438.0469,441.9497,428.0469,437.9497,432.0469" style="stroke:#181818;stroke-width:1;stroke-linejoin:miter;stroke-miterlimit:10;"/><line style="stroke:#181818;stroke-width:1;" x1="220.4397" x2="132.665" y1="351.9141" y2="351.9141"/><line style="stroke:#181818;stroke-width:1;" x1="132.665" x2="132.665" y1="351.9141" y2="383.9141"/><polygon fill="#181818" points="128.665,373.9141,132.665,383.9141,136.665,373.9141,132.665,377.9141" style="stroke:#181818;stroke-width:1;stroke-linejoin:miter;stroke-miterlimit:10;"/><line style="stroke:#181818;stroke-width:1;" x1="350.175" x2="437.9497" y1="351.9141" y2="351.9141"/><line style="stroke:#181818;stroke-width:1;" x1="437.9497" x2="437.9497" y1="351.9141" y2="383.9141"/><polygon fill="#181818" points="433.9497,373.9141,437.9497,383.9141,441.9497,373.9141,437.9497,377.9141" style="stroke:#181818;stroke-width:1;stroke-linejoin:miter;stroke-miterlimit:10;"/><line style="stroke:#181818;stroke-width:1;" x1="285.3074" x2="285.3074" y1="319.9141" y2="339.9141"/><polygon fill="#181818" points="281.3074,329.9141,285.3074,339.9141,289.3074,329.9141,285.3074,333.9141" style="stroke:#181818;stroke-width:1;stroke-linejoin:miter;stroke-miterlimit:10;"/><line style="stroke:#181818;stroke-width:1;" x1="754.2275" x2="754.2275" y1="629.6211" y2="649.6211"/><polygon fill="#181818" points="750.2275,639.6211,754.2275,649.6211,758.2275,639.6211,754.2275,643.6211" style="stroke:#181818;stroke-width:1;stroke-linejoin:miter;stroke-miterlimit:10;"/><line style="stroke:#181818;stroke-width:1;" x1="537.7734" x2="537.7734" y1="518.0898" y2="535.5898"/><line style="stroke:#181818;stroke-width:1;" x1="537.7734" x2="754.2275" y1="535.5898" y2="535.5898"/><line style="stroke:#181818;stroke-width:1;" x1="754.2275" x2="754.2275" y1="535.5898" y2="553.0898"/><polygon fill="#181818" points="750.2275,543.0898,754.2275,553.0898,758.2275,543.0898,754.2275,547.0898" style="stroke:#181818;stroke-width:1;stroke-linejoin:miter;stroke-miterlimit:10;"/><text fill="#000000" font-family="sans-serif" font-size="18" lengthAdjust="spacing" textLength="188.7275" x="234.3242" y="72.1875">SincronizacionWorker</text><text fill="#000000" font-family="sans-serif" font-size="18" lengthAdjust="spacing" textLength="87.4951" x="709.48" y="72.1875">Proveedor</text><?plantuml-src RL8nZjj03Epr2fPISycrTe30S7o0WGjis4ZIgE6jg0lX5IdihWnVu2AFo0VoW5JfqWI8VvANX98Enjb8imjmPuOpN2PEdc3c4k-vmWh-Vlq6MnONLFWBEZxz570gG1uMcpNG8L4GXRp55FgtLPSUz51asV4bI-MJXXs5OnOJXfHDvYgnQpZ0Oa-Iz19RIaNWqVhOaM-eubXCiyawg7cYCAkmjQvtw9A69mWKE_9xAiKyOV-6bGQ8z7ZwPL8zYyWgDqj9z1Y63cRz9d6hTflmx4nYsQj344rSFstHKrx0grAwji94swHkPmMwJZ_DCguX__DxGx7jo2BQ2oUD-BQ0zDdmUJpzA3A0oNiC3WFGaDe2DWhhpMg-sCxUhQOzm2RVeRT116lh4pTuEPl5ADnZOz8s8ny9Sj51VMb8QapQMjWdZPbibcp9hL_iMQFJvNC5ta1p-dxWHainHisFNJ3MjM_Jtj2eCagNye1kftLjILiL4iVefmDoi0NmqjZ_Wz_Dxk-NOso0u_cVZYFX8vtHDNhFbJuFlaNxw5Bo3_FRryDw3hlaUsFzw0rNsIx4ovqjZ1RGTiMyE_OyLajfKBfhur9ndOtdFm00?></g></svg>