<svg xmlns="http://www.w3.org/2000/svg" xmlns:xlink="http://www.w3.org/1999/xlink" contentStyleType="text/css" data-diagram-type="CLASS" height="667px" preserveAspectRatio="none" style="width:1078px;height:667px;background:#FFFFFF;" version="1.1" viewBox="0 0 1078 667" width="1078px" zoomAndPan="magnify"><?plantuml 1.2026.6?><defs/><g><!--class Usuario--><g class="entity" data-qualified-name="Usuario" data-source-line="11" id="ent0001"><rect fill="#F1F1F1" height="146.9297" rx="2.5" ry="2.5" style="stroke:#181818;stroke-width:0.5;" width="188.2305" x="301.53" y="7"/><ellipse cx="365.5793" cy="23" fill="#A9DCDF" rx="11" ry="11" style="stroke:#181818;stroke-width:1;"/><path d="M365.4426,18.3481 L364.2888,23.4199 L366.6047,23.4199 Z M363.9485,16.1069 L366.945,16.1069 L370.2903,28.5 L367.8415,28.5 L367.0779,25.437 L363.799,25.437 L363.052,28.5 L360.6032,28.5 Z " fill="#000000"/><text fill="#000000" font-family="sans-serif" font-size="14" font-style="italic" lengthAdjust="spacing" textLength="51.6318" x="386.0793" y="28.291">Usuario</text><line style="stroke:#181818;stroke-width:0.5;" x1="302.53" x2="488.7605" y1="39" y2="39"/><text fill="#000000" font-family="sans-serif" font-size="14" lengthAdjust="spacing" textLength="64.4902" x="307.53" y="56.5352">#id: UUID</text><text fill="#000000" font-family="sans-serif" font-size="14" lengthAdjust="spacing" textLength="176.2305" x="307.53" y="73.0234">#nombreCompleto: String</text><text fill="#000000" font-family="sans-serif" font-size="14" lengthAdjust="spacing" textLength="94.377" x="307.53" y="89.5117">#email: String</text><text fill="#000000" font-family="sans-serif" font-size="14" lengthAdjust="spacing" textLength="175.4033" x="307.53" y="106">#fechaRegistro: DateTime</text><text fill="#000000" font-family="sans-serif" font-size="14" lengthAdjust="spacing" textLength="112.0205" x="307.53" y="122.4883">#activo: boolean</text><line style="stroke:#181818;stroke-width:0.5;" x1="302.53" x2="488.7605" y1="129.4414" y2="129.4414"/><text fill="#000000" font-family="sans-serif" font-size="14" lengthAdjust="spacing" textLength="140.9639" x="307.53" y="146.9766">+autenticar(): Sesion</text></g><!--class Estudiante--><g class="entity" data-qualified-name="Estudiante" data-source-line="20" id="ent0002"><rect fill="#F1F1F1" height="97.4648" rx="2.5" ry="2.5" style="stroke:#181818;stroke-width:0.5;" width="208.1436" x="68.57" y="219.18"/><ellipse cx="132.9098" cy="235.18" fill="#ADD1B2" rx="11" ry="11" style="stroke:#181818;stroke-width:1;"/><path d="M135.383,241.3231 Q134.8019,241.6219 134.1628,241.7713 Q133.5236,241.9207 132.818,241.9207 Q130.3112,241.9207 128.9914,240.2689 Q127.6716,238.617 127.6716,235.4959 Q127.6716,232.3665 128.9914,230.7147 Q130.3112,229.0628 132.818,229.0628 Q133.5236,229.0628 134.1711,229.2122 Q134.8185,229.3616 135.383,229.6605 L135.383,232.3831 Q134.7521,231.8021 134.1586,231.5323 Q133.5651,231.2625 132.9343,231.2625 Q131.5895,231.2625 130.9047,232.3292 Q130.2199,233.3958 130.2199,235.4959 Q130.2199,237.5877 130.9047,238.6544 Q131.5895,239.721 132.9343,239.721 Q133.5651,239.721 134.1586,239.4512 Q134.7521,239.1815 135.383,238.6004 Z " fill="#000000"/><text fill="#000000" font-family="sans-serif" font-size="14" lengthAdjust="spacing" textLength="70.9639" x="153.4098" y="240.471">Estudiante</text><line style="stroke:#181818;stroke-width:0.5;" x1="69.57" x2="275.7136" y1="251.18" y2="251.18"/><text fill="#000000" font-family="sans-serif" font-size="14" lengthAdjust="spacing" textLength="196.1436" x="74.57" y="268.7152">-dominioInstitucional: String</text><text fill="#000000" font-family="sans-serif" font-size="14" lengthAdjust="spacing" textLength="186.2383" x="74.57" y="285.2034">-codigoInstitucional: String</text><line style="stroke:#181818;stroke-width:0.5;" x1="69.57" x2="275.7136" y1="292.1566" y2="292.1566"/><text fill="#000000" font-family="sans-serif" font-size="14" lengthAdjust="spacing" textLength="173.3115" x="74.57" y="309.6917">+consultarSaldo(): Money</text></g><!--class UsuarioProveedor--><g class="entity" data-qualified-name="UsuarioProveedor" data-source-line="26" id="ent0004"><rect fill="#F1F1F1" height="56.4883" rx="2.5" ry="2.5" style="stroke:#181818;stroke-width:0.5;" width="166.8887" x="312.2" y="239.66"/><ellipse cx="334.0423" cy="255.66" fill="#A9DCDF" rx="11" ry="11" style="stroke:#181818;stroke-width:1;"/><path d="M333.9056,251.0081 L332.7518,256.0799 L335.0677,256.0799 Z M332.4114,248.7669 L335.408,248.7669 L338.7532,261.16 L336.3045,261.16 L335.5408,258.097 L332.262,258.097 L331.5149,261.16 L329.0662,261.16 Z " fill="#000000"/><text fill="#000000" font-family="sans-serif" font-size="14" font-style="italic" lengthAdjust="spacing" textLength="119.6836" x="349.5628" y="260.951">UsuarioProveedor</text><line style="stroke:#181818;stroke-width:0.5;" x1="313.2" x2="478.0887" y1="271.66" y2="271.66"/><text fill="#000000" font-family="sans-serif" font-size="14" lengthAdjust="spacing" textLength="154.8887" x="318.2" y="289.1952">#proveedor: Proveedor</text></g><!--class Administrador--><g class="entity" data-qualified-name="Administrador" data-source-line="30" id="ent0006"><rect fill="#F1F1F1" height="105.9531" rx="2.5" ry="2.5" style="stroke:#181818;stroke-width:0.5;" width="312.6172" x="111.34" y="397.88"/><ellipse cx="214.7506" cy="413.88" fill="#ADD1B2" rx="11" ry="11" style="stroke:#181818;stroke-width:1;"/><path d="M217.2238,420.0231 Q216.6427,420.3219 216.0036,420.4713 Q215.3644,420.6207 214.6588,420.6207 Q212.152,420.6207 210.8322,418.9689 Q209.5124,417.317 209.5124,414.1959 Q209.5124,411.0665 210.8322,409.4147 Q212.152,407.7628 214.6588,407.7628 Q215.3644,407.7628 216.0119,407.9122 Q216.6593,408.0616 217.2238,408.3605 L217.2238,411.0831 Q216.5929,410.5021 215.9994,410.2323 Q215.4059,409.9625 214.7751,409.9625 Q213.4303,409.9625 212.7455,411.0292 Q212.0607,412.0958 212.0607,414.1959 Q212.0607,416.2877 212.7455,417.3544 Q213.4303,418.421 214.7751,418.421 Q215.4059,418.421 215.9994,418.1512 Q216.5929,417.8815 217.2238,417.3004 Z " fill="#000000"/><text fill="#000000" font-family="sans-serif" font-size="14" lengthAdjust="spacing" textLength="97.2959" x="235.2506" y="419.171">Administrador</text><line style="stroke:#181818;stroke-width:0.5;" x1="112.34" x2="422.9572" y1="429.88" y2="429.88"/><text fill="#000000" font-family="sans-serif" font-size="14" lengthAdjust="spacing" textLength="172.9902" x="117.34" y="447.4152">+administrarMenu(): void</text><text fill="#000000" font-family="sans-serif" font-size="14" lengthAdjust="spacing" textLength="273.9912" x="117.34" y="463.9034">+consultarMetricas(): MetricasProveedor</text><text fill="#000000" font-family="sans-serif" font-size="14" lengthAdjust="spacing" textLength="237.6104" x="117.34" y="480.3917">+gestionarUsuariosDelLocal(): void</text><text fill="#000000" font-family="sans-serif" font-size="14" lengthAdjust="spacing" textLength="300.6172" x="117.34" y="496.88">+configurarIntegracionERP(): IntegracionERP</text></g><!--class Operador--><g class="entity" data-qualified-name="Operador" data-source-line="37" id="ent0008"><rect fill="#F1F1F1" height="97.4648" rx="2.5" ry="2.5" style="stroke:#181818;stroke-width:0.5;" width="277.6035" x="458.84" y="402.13"/><ellipse cx="561.3483" cy="418.13" fill="#ADD1B2" rx="11" ry="11" style="stroke:#181818;stroke-width:1;"/><path d="M563.8214,424.2731 Q563.2404,424.5719 562.6012,424.7213 Q561.9621,424.8707 561.2565,424.8707 Q558.7497,424.8707 557.4298,423.2189 Q556.11,421.567 556.11,418.4459 Q556.11,415.3165 557.4298,413.6647 Q558.7497,412.0128 561.2565,412.0128 Q561.9621,412.0128 562.6095,412.1622 Q563.257,412.3116 563.8214,412.6105 L563.8214,415.3331 Q563.1906,414.7521 562.5971,414.4823 Q562.0036,414.2125 561.3727,414.2125 Q560.028,414.2125 559.3432,415.2792 Q558.6584,416.3458 558.6584,418.4459 Q558.6584,420.5377 559.3432,421.6044 Q560.028,422.671 561.3727,422.671 Q562.0036,422.671 562.5971,422.4012 Q563.1906,422.1315 563.8214,421.5504 Z " fill="#000000"/><text fill="#000000" font-family="sans-serif" font-size="14" lengthAdjust="spacing" textLength="64.0869" x="581.8483" y="423.421">Operador</text><line style="stroke:#181818;stroke-width:0.5;" x1="459.84" x2="735.4435" y1="434.13" y2="434.13"/><text fill="#000000" font-family="sans-serif" font-size="14" lengthAdjust="spacing" textLength="235.5117" x="464.84" y="451.6652">-puntoDeEntrega: PuntoDeEntrega</text><line style="stroke:#181818;stroke-width:0.5;" x1="459.84" x2="735.4435" y1="458.6183" y2="458.6183"/><text fill="#000000" font-family="sans-serif" font-size="14" lengthAdjust="spacing" textLength="252.957" x="464.84" y="476.1534">+buscarOrden(codigo: String): Orden</text><text fill="#000000" font-family="sans-serif" font-size="14" lengthAdjust="spacing" textLength="265.6035" x="464.84" y="492.6417">+confirmarEntrega(orden: Orden): void</text></g><!--class SuperAdmin--><g class="entity" data-qualified-name="SuperAdmin" data-source-line="43" id="ent0010"><rect fill="#F1F1F1" height="105.9531" rx="2.5" ry="2.5" style="stroke:#181818;stroke-width:0.5;" width="398.3398" x="665.48" y="214.93"/><ellipse cx="818.9776" cy="230.93" fill="#ADD1B2" rx="11" ry="11" style="stroke:#181818;stroke-width:1;"/><path d="M821.4507,237.0731 Q820.8696,237.3719 820.2305,237.5213 Q819.5913,237.6707 818.8858,237.6707 Q816.3789,237.6707 815.0591,236.0189 Q813.7393,234.367 813.7393,231.2459 Q813.7393,228.1165 815.0591,226.4647 Q816.3789,224.8128 818.8858,224.8128 Q819.5913,224.8128 820.2388,224.9622 Q820.8863,225.1116 821.4507,225.4105 L821.4507,228.1331 Q820.8198,227.5521 820.2263,227.2823 Q819.6328,227.0125 819.002,227.0125 Q817.6572,227.0125 816.9724,228.0792 Q816.2876,229.1458 816.2876,231.2459 Q816.2876,233.3377 816.9724,234.4044 Q817.6572,235.471 819.002,235.471 Q819.6328,235.471 820.2263,235.2012 Q820.8198,234.9315 821.4507,234.3504 Z " fill="#000000"/><text fill="#000000" font-family="sans-serif" font-size="14" lengthAdjust="spacing" textLength="82.8447" x="839.4776" y="236.221">SuperAdmin</text><line style="stroke:#181818;stroke-width:0.5;" x1="666.48" x2="1062.8198" y1="246.93" y2="246.93"/><text fill="#000000" font-family="sans-serif" font-size="14" lengthAdjust="spacing" textLength="319.9697" x="671.48" y="264.4652">+darDeAltaLocal(datos: DatosLocal): Proveedor</text><text fill="#000000" font-family="sans-serif" font-size="14" lengthAdjust="spacing" textLength="386.3398" x="671.48" y="280.9534">+configurarIntegracionERP(p: Proveedor): IntegracionERP</text><text fill="#000000" font-family="sans-serif" font-size="14" lengthAdjust="spacing" textLength="245.3828" x="671.48" y="297.4417">+brindarSoporte(p: Proveedor): void</text><text fill="#000000" font-family="sans-serif" font-size="14" lengthAdjust="spacing" textLength="208.5166" x="671.48" y="313.93">+administrarPlataforma(): void</text></g><!--class Proveedor--><g class="entity" data-qualified-name="Proveedor" data-source-line="50" id="ent0012"><rect fill="#F4F4F4" height="40.6211" rx="2.5" ry="2.5" style="stroke:#9E9E9E;stroke-width:0.5;" width="100.0518" x="530.62" y="247.6"/><ellipse cx="545.62" cy="267.9105" fill="#ADD1B2" rx="11" ry="11" style="stroke:#181818;stroke-width:1;"/><path d="M548.0931,274.0536 Q547.5121,274.3524 546.8729,274.5019 Q546.2338,274.6513 545.5282,274.6513 Q543.0214,274.6513 541.7015,272.9994 Q540.3817,271.3476 540.3817,268.2265 Q540.3817,265.0971 541.7015,263.4452 Q543.0214,261.7934 545.5282,261.7934 Q546.2338,261.7934 546.8812,261.9428 Q547.5287,262.0922 548.0931,262.391 L548.0931,265.1137 Q547.4623,264.5326 546.8688,264.2628 Q546.2753,263.9931 545.6444,263.9931 Q544.2997,263.9931 543.6149,265.0597 Q542.9301,266.1264 542.9301,268.2265 Q542.9301,270.3183 543.6149,271.3849 Q544.2997,272.4516 545.6444,272.4516 Q546.2753,272.4516 546.8688,272.1818 Q547.4623,271.912 548.0931,271.331 Z " fill="#000000"/><text fill="#000000" font-family="sans-serif" font-size="12" font-style="italic" lengthAdjust="spacing" textLength="63.9316" x="561.6801" y="264.2016">&#171;contexto&#187;</text><text fill="#555555" font-family="sans-serif" font-size="14" lengthAdjust="spacing" textLength="68.0518" x="559.62" y="280.268">Proveedor</text></g><!--class PuntoDeEntrega--><g class="entity" data-qualified-name="PuntoDeEntrega" data-source-line="51" id="ent0013"><rect fill="#F4F4F4" height="40.6211" rx="2.5" ry="2.5" style="stroke:#9E9E9E;stroke-width:0.5;" width="140.7393" x="649.28" y="596.15"/><ellipse cx="664.28" cy="616.4605" fill="#ADD1B2" rx="11" ry="11" style="stroke:#181818;stroke-width:1;"/><path d="M666.7531,622.6036 Q666.1721,622.9024 665.5329,623.0519 Q664.8938,623.2013 664.1882,623.2013 Q661.6814,623.2013 660.3615,621.5494 Q659.0417,619.8976 659.0417,616.7765 Q659.0417,613.6471 660.3615,611.9952 Q661.6814,610.3434 664.1882,610.3434 Q664.8938,610.3434 665.5412,610.4928 Q666.1887,610.6422 666.7531,610.941 L666.7531,613.6637 Q666.1223,613.0826 665.5288,612.8128 Q664.9353,612.5431 664.3044,612.5431 Q662.9597,612.5431 662.2749,613.6097 Q661.5901,614.6764 661.5901,616.7765 Q661.5901,618.8683 662.2749,619.9349 Q662.9597,621.0016 664.3044,621.0016 Q664.9353,621.0016 665.5288,620.7318 Q666.1223,620.462 666.7531,619.881 Z " fill="#000000"/><text fill="#000000" font-family="sans-serif" font-size="12" font-style="italic" lengthAdjust="spacing" textLength="63.9316" x="700.6838" y="612.7516">&#171;contexto&#187;</text><text fill="#555555" font-family="sans-serif" font-size="14" lengthAdjust="spacing" textLength="108.7393" x="678.28" y="628.818">PuntoDeEntrega</text></g><g class="entity" data-qualified-name="GMN14" data-source-line="54" id="ent0015"><path d="M6,580.84 L6,652.0822 A0,0 0 0 0 6,652.0822 L529.29,652.0822 A0,0 0 0 0 529.29,652.0822 L529.29,590.84 L519.29,580.84 L271.65,580.84 L267.65,504.07 L263.65,580.84 L6,580.84 A0,0 0 0 0 6,580.84" fill="#FEFFDD" style="stroke:#181818;stroke-width:0.5;"/><path d="M519.29,580.84 L519.29,590.84 L529.29,590.84 L519.29,580.84" fill="#FEFFDD" style="stroke:#181818;stroke-width:0.5;"/><text fill="#000000" font-family="sans-serif" font-size="13" lengthAdjust="spacing" textLength="105.4346" x="12" y="598.4084">El rol de negocio</text><text fill="#000000" font-family="sans-serif" font-size="13" font-weight="700" lengthAdjust="spacing" textLength="79.7012" x="121.5479" y="598.4084">"Proveedor"</text><text fill="#000000" font-family="sans-serif" font-size="13" lengthAdjust="spacing" textLength="222.0664" x="205.3623" y="598.4084">es esta clase `Administrador` &#8212; la</text><text fill="#000000" font-family="sans-serif" font-size="13" font-weight="700" lengthAdjust="spacing" textLength="53.9741" x="431.542" y="598.4084">persona</text><text fill="#000000" font-family="sans-serif" font-size="13" lengthAdjust="spacing" textLength="304.0337" x="12" y="613.7189">que gerencia el local. La clase `Proveedor` es el</text><text fill="#000000" font-family="sans-serif" font-size="13" font-weight="700" lengthAdjust="spacing" textLength="91.1523" x="320.147" y="613.7189">local/negocio</text><text fill="#000000" font-family="sans-serif" font-size="13" lengthAdjust="spacing" textLength="67.9644" x="415.4126" y="613.7189">(el tenant).</text><text fill="#000000" font-family="sans-serif" font-size="13" lengthAdjust="spacing" textLength="230.5151" x="12" y="629.0295">`SuperAdmin` extiende `Usuario` y</text><text fill="#000000" font-family="sans-serif" font-size="13" font-weight="700" lengthAdjust="spacing" textLength="16.8403" x="246.6284" y="629.0295">no</text><text fill="#000000" font-family="sans-serif" font-size="13" lengthAdjust="spacing" textLength="246.708" x="267.582" y="629.0295">`UsuarioProveedor`: es el &#250;nico rol sin</text><text fill="#000000" font-family="sans-serif" font-size="13" lengthAdjust="spacing" textLength="330.6304" x="12" y="644.34">local propio, con visibilidad sobre todos los tenants.</text></g><!--reverse link Usuario to Estudiante--><g class="link" data-entity-1="ent0001" data-entity-2="ent0002" data-link-type="extension" data-source-line="21" id="lnk3"><path d="M294.3094,165.7382 C268.1994,187.4482 254.08,199.19 230.38,218.89" fill="none" id="Usuario-backto-Estudiante" style="stroke:#181818;stroke-width:1;"/><polygon fill="none" points="308.15,154.23,290.4734,161.1247,298.1455,170.3517,308.15,154.23" style="stroke:#181818;stroke-width:1;stroke-linejoin:miter;stroke-miterlimit:10;"/></g><!--reverse link Usuario to UsuarioProveedor--><g class="link" data-entity-1="ent0001" data-entity-2="ent0004" data-link-type="extension" data-source-line="27" id="lnk5"><path d="M395.65,172.23 C395.65,202.06 395.65,216.78 395.65,239.24" fill="none" id="Usuario-backto-UsuarioProveedor" style="stroke:#181818;stroke-width:1;"/><polygon fill="none" points="395.65,154.23,389.65,172.23,401.65,172.23,395.65,154.23" style="stroke:#181818;stroke-width:1;stroke-linejoin:miter;stroke-miterlimit:10;"/></g><!--reverse link UsuarioProveedor to Administrador--><g class="link" data-entity-1="ent0004" data-entity-2="ent0006" data-link-type="extension" data-source-line="31" id="lnk7"><path d="M365.8053,311.0852 C346.8553,337.8752 327.95,364.61 304.56,397.67" fill="none" id="UsuarioProveedor-backto-Administrador" style="stroke:#181818;stroke-width:1;"/><polygon fill="none" points="376.2,296.39,360.9069,307.6203,370.7037,314.5501,376.2,296.39" style="stroke:#181818;stroke-width:1;stroke-linejoin:miter;stroke-miterlimit:10;"/></g><!--reverse link UsuarioProveedor to Operador--><g class="link" data-entity-1="ent0004" data-entity-2="ent0008" data-link-type="extension" data-source-line="38" id="lnk9"><path d="M396.3236,314.5037 C397.4936,336.1037 401.35,347.78 417.65,367.88 C429,381.89 443.26,393.6 458.77,403.36" fill="none" id="UsuarioProveedor-backto-Operador" style="stroke:#181818;stroke-width:1;"/><polygon fill="none" points="395.35,296.53,390.3324,314.8282,402.3148,314.1791,395.35,296.53" style="stroke:#181818;stroke-width:1;stroke-linejoin:miter;stroke-miterlimit:10;"/></g><!--reverse link Usuario to SuperAdmin--><g class="link" data-entity-1="ent0001" data-entity-2="ent0010" data-link-type="extension" data-source-line="44" id="lnk11"><path d="M506.729,125.3886 C576.279,152.8886 655.06,184.04 732.25,214.56" fill="none" id="Usuario-backto-SuperAdmin" style="stroke:#181818;stroke-width:1;"/><polygon fill="none" points="489.99,118.77,504.5228,130.9683,508.9352,119.8089,489.99,118.77" style="stroke:#181818;stroke-width:1;stroke-linejoin:miter;stroke-miterlimit:10;"/></g><!--reverse link Proveedor to Administrador--><g class="link" data-entity-1="ent0012" data-entity-2="ent0006" data-link-type="composition" data-source-line="60" id="lnk17"><path codeLine="60" d="M539.1455,295.0823 C523.4255,304.9123 514.22,310.51 496.65,320.88 C453.04,346.64 404.19,374.31 362.85,397.39" fill="none" id="Proveedor-backto-Administrador" style="stroke:#181818;stroke-width:1;"/><polygon fill="#181818" points="549.32,288.72,542.112,288.5096,539.1455,295.0823,546.3535,295.2927,549.32,288.72" style="stroke:#181818;stroke-width:1;stroke-linejoin:miter;stroke-miterlimit:10;"/><text fill="#000000" font-family="sans-serif" font-size="13" lengthAdjust="spacing" textLength="102.1401" x="441.54" y="364.4484">gerencia el local</text><text fill="#000000" font-family="sans-serif" font-size="13" lengthAdjust="spacing" textLength="8.2202" x="531.8558" y="308.9383">1</text><text fill="#000000" font-family="sans-serif" font-size="13" lengthAdjust="spacing" textLength="22.7119" x="351.6839" y="387.1669">1..*</text></g><!--reverse link Proveedor to Operador--><g class="link" data-entity-1="ent0012" data-entity-2="ent0008" data-link-type="composition" data-source-line="61" id="lnk18"><path codeLine="61" d="M583.6224,300.5674 C586.1524,327.4974 589.65,364.72 593.12,401.71" fill="none" id="Proveedor-backto-Operador" style="stroke:#181818;stroke-width:1;"/><polygon fill="#181818" points="582.5,288.62,579.0787,294.9678,583.6224,300.5674,587.0437,294.2196,582.5,288.62" style="stroke:#181818;stroke-width:1;stroke-linejoin:miter;stroke-miterlimit:10;"/><text fill="#000000" font-family="sans-serif" font-size="13" lengthAdjust="spacing" textLength="126.0327" x="590.65" y="364.4484">personal de entrega</text><text fill="#000000" font-family="sans-serif" font-size="13" lengthAdjust="spacing" textLength="8.2202" x="573.9529" y="308.8114">1</text><text fill="#000000" font-family="sans-serif" font-size="13" lengthAdjust="spacing" textLength="22.7119" x="568.9873" y="391.3334">0..*</text></g><!--reverse link Proveedor to PuntoDeEntrega--><g class="link" data-entity-1="ent0012" data-entity-2="ent0013" data-link-type="composition" data-source-line="62" id="lnk19"><path codeLine="62" d="M611.9198,296.4268 C624.4598,306.9568 631.62,311.85 647.65,320.88 C680,339.13 697.25,326.95 725.65,350.88 C744.24,366.56 747.19,374.44 753.65,397.88 C773.33,469.39 743.66,557.47 728.13,595.94" fill="none" id="Proveedor-backto-PuntoDeEntrega" style="stroke:#181818;stroke-width:1;"/><polygon fill="#181818" points="602.73,288.71,604.7526,295.6316,611.9198,296.4268,609.8971,289.5051,602.73,288.71" style="stroke:#181818;stroke-width:1;stroke-linejoin:miter;stroke-miterlimit:10;"/><text fill="#000000" font-family="sans-serif" font-size="13" lengthAdjust="spacing" textLength="8.2202" x="599.6197" y="308.9256">1</text><text fill="#000000" font-family="sans-serif" font-size="13" lengthAdjust="spacing" textLength="22.7119" x="705.4944" y="585.3229">0..*</text></g><!--link Operador to PuntoDeEntrega--><g class="link" data-entity-1="ent0008" data-entity-2="ent0013" data-link-type="dependency" data-source-line="63" id="lnk20"><path codeLine="63" d="M633.59,500.06 C657.49,532.11 684.6001,568.4724 702.1401,591.9824" fill="none" id="Operador-to-PuntoDeEntrega" style="stroke:#181818;stroke-width:1;"/><polygon fill="#181818" points="705.13,595.99,702.9542,586.3845,702.1401,591.9824,696.5421,591.1683,705.13,595.99" style="stroke:#181818;stroke-width:1;stroke-linejoin:miter;stroke-miterlimit:10;"/><text fill="#000000" font-family="sans-serif" font-size="13" lengthAdjust="spacing" textLength="63.2798" x="670.57" y="547.4084">trabaja en</text><text fill="#000000" font-family="sans-serif" font-size="13" lengthAdjust="spacing" textLength="22.7119" x="614.9903" y="520.268">0..*</text><text fill="#000000" font-family="sans-serif" font-size="13" lengthAdjust="spacing" textLength="8.2202" x="691.7222" y="585.3876">1</text></g><?plantuml-src ZLJDRjf04BxxAKRaGfn2Kwaz54MHqa0af4I9GdDdxHsSRTOxxkuQbLQL-X1zcbxx9dsIpYx6O4Ag0X8mlz_tpOpTapALiAA4N0ldBhotAgizJdCoC_KLuJHnRKWbyYTHuColD8B5t0jJQDm9Y3NWMmBmWKCBIxMHbwJ9dfrnFOzVF9sVmz7Ls_0EKMGbsWCHxoVXpH5NR3pWVnTVoVVaKKa4B2k_WXBB3ArB4f4vRqNk6pWFhXPMKOHr14gEuE5XEev_39MPnKigAusUHZ1ZzgQ8BYo5qXtB0lD7SO-5ukeSEnOUFweIeu-xgIKRCoADmh3j10JBQBpAXUqVSo5qYWmZJjQe9ixNKWcc14mAZUm27O2aKXb5K-EyydNEoM8Npm1oagfuqN_2VkDgxOMT2IqfOBWXWwi0uR12TvQMY9BiGKH7K6ty8sX3juGkPC0RwXwei2tzRQrD6snlqDG1t9AKxEA-GIQJ2nUXDx-tZKDeWKoUYTkcZHkZlgPSwFs22rNKt6lASXTCd7CcztSXg6lPihcjy3-83A2gZQSnJeotM0WMflC_jizgnpjmovjk-kkPRSR4_QDvYzAMmZQv_N0RfedOq6dnpMe662K_EAmJaCAEyO9bNEiXXISNbvPSj1pl3l6VAbKxaSyLYmoP3FURKKNMutv2EuUTeTzfuSM2c6x_6RMjnBitlt5szEr698RucZBodagWHNSZ6S54WoKD_C0mM10JW3JjjTrwQGhe-ED5F0k4UQV07Fxy-0bQS19BxtZhqfIBVgwHrz2YoPK0rA23k4EuRekq3UQnlERy6FEw0S5j-spb6VB3u7Z89UVRuSx3T1MFbmiryvt3YakOa3VVNyhvgEdn-vTHEKMwJeNzYYt31LUANeLPmr8vbIcjf93WY1-3u4cIuqZNW773X3j3K3L9jbFflUb1EXZmzt2OzlRkVlHSZ4Effp6rFR8HD9B6wM1pF2_cxHrPMwPn3mRdCMDlLqR063FnYP6Pv2y0?></g></svg>