<svg xmlns="http://www.w3.org/2000/svg" xmlns:xlink="http://www.w3.org/1999/xlink" contentStyleType="text/css" data-diagram-type="CLASS" height="928px" preserveAspectRatio="none" style="width:1044px;height:928px;background:#FFFFFF;" version="1.1" viewBox="0 0 1044 928" width="1044px" zoomAndPan="magnify"><?plantuml 1.2026.6?><defs/><g><!--class Proveedor--><g class="entity" data-qualified-name="Proveedor" data-source-line="11" id="ent0001"><rect fill="#F1F1F1" height="196.3945" rx="2.5" ry="2.5" style="stroke:#181818;stroke-width:0.5;" width="317.2109" x="265.76" y="7"/><ellipse cx="386.0896" cy="23" fill="#ADD1B2" rx="11" ry="11" style="stroke:#181818;stroke-width:1;"/><path d="M388.5627,29.1431 Q387.9817,29.4419 387.3425,29.5913 Q386.7034,29.7407 385.9978,29.7407 Q383.491,29.7407 382.1711,28.0889 Q380.8513,26.437 380.8513,23.3159 Q380.8513,20.1865 382.1711,18.5347 Q383.491,16.8828 385.9978,16.8828 Q386.7034,16.8828 387.3508,17.0322 Q387.9983,17.1816 388.5627,17.4805 L388.5627,20.2031 Q387.9319,19.6221 387.3384,19.3523 Q386.7449,19.0825 386.114,19.0825 Q384.7693,19.0825 384.0845,20.1492 Q383.3996,21.2158 383.3996,23.3159 Q383.3996,25.4077 384.0845,26.4744 Q384.7693,27.541 386.114,27.541 Q386.7449,27.541 387.3384,27.2712 Q387.9319,27.0015 388.5627,26.4204 Z " fill="#000000"/><text fill="#000000" font-family="sans-serif" font-size="14" lengthAdjust="spacing" textLength="68.0518" x="406.5896" y="28.291">Proveedor</text><line style="stroke:#181818;stroke-width:0.5;" x1="266.76" x2="581.9709" y1="39" y2="39"/><text fill="#000000" font-family="sans-serif" font-size="14" lengthAdjust="spacing" textLength="63.7383" x="271.76" y="56.5352">-id: UUID</text><text fill="#000000" font-family="sans-serif" font-size="14" lengthAdjust="spacing" textLength="177.5088" x="271.76" y="73.0234">-nombreComercial: String</text><text fill="#000000" font-family="sans-serif" font-size="14" lengthAdjust="spacing" textLength="78.5176" x="271.76" y="89.5117">-ruc: String</text><text fill="#000000" font-family="sans-serif" font-size="14" lengthAdjust="spacing" textLength="145.1953" x="271.76" y="106">-fechaAlta: DateTime</text><text fill="#000000" font-family="sans-serif" font-size="14" lengthAdjust="spacing" textLength="111.2686" x="271.76" y="122.4883">-activo: boolean</text><text fill="#000000" font-family="sans-serif" font-size="14" lengthAdjust="spacing" textLength="174.9658" x="271.76" y="138.9766">-horaMaximaRetiro: Time</text><text fill="#000000" font-family="sans-serif" font-size="14" lengthAdjust="spacing" textLength="211.1211" x="271.76" y="155.4648">-cuentaBancariaDestino: String</text><text fill="#000000" font-family="sans-serif" font-size="14" lengthAdjust="spacing" textLength="261.584" x="271.76" y="171.9531">-credencialesComercioCifradas: String</text><line style="stroke:#181818;stroke-width:0.5;" x1="266.76" x2="581.9709" y1="178.9063" y2="178.9063"/><text fill="#000000" font-family="sans-serif" font-size="14" lengthAdjust="spacing" textLength="305.2109" x="271.76" y="196.4414">+configurarHoraMaximaRetiro(h: Time): void</text></g><!--class PuntoDeEntrega--><g class="entity" data-qualified-name="PuntoDeEntrega" data-source-line="23" id="ent0002"><rect fill="#F1F1F1" height="89.4648" rx="2.5" ry="2.5" style="stroke:#181818;stroke-width:0.5;" width="140.7393" x="7" y="615.5"/><ellipse cx="22" cy="631.5" fill="#ADD1B2" rx="11" ry="11" style="stroke:#181818;stroke-width:1;"/><path d="M24.4731,637.6431 Q23.8921,637.9419 23.2529,638.0913 Q22.6138,638.2407 21.9082,638.2407 Q19.4014,638.2407 18.0815,636.5889 Q16.7617,634.937 16.7617,631.8159 Q16.7617,628.6865 18.0815,627.0347 Q19.4014,625.3828 21.9082,625.3828 Q22.6138,625.3828 23.2612,625.5322 Q23.9087,625.6816 24.4731,625.9805 L24.4731,628.7031 Q23.8423,628.1221 23.2488,627.8523 Q22.6553,627.5825 22.0244,627.5825 Q20.6797,627.5825 19.9949,628.6492 Q19.3101,629.7158 19.3101,631.8159 Q19.3101,633.9077 19.9949,634.9744 Q20.6797,636.041 22.0244,636.041 Q22.6553,636.041 23.2488,635.7712 Q23.8423,635.5015 24.4731,634.9204 Z " fill="#000000"/><text fill="#000000" font-family="sans-serif" font-size="14" lengthAdjust="spacing" textLength="108.7393" x="36" y="636.791">PuntoDeEntrega</text><line style="stroke:#181818;stroke-width:0.5;" x1="8" x2="146.7393" y1="647.5" y2="647.5"/><text fill="#000000" font-family="sans-serif" font-size="14" lengthAdjust="spacing" textLength="63.7383" x="13" y="665.0352">-id: UUID</text><text fill="#000000" font-family="sans-serif" font-size="14" lengthAdjust="spacing" textLength="109.6279" x="13" y="681.5234">-nombre: String</text><text fill="#000000" font-family="sans-serif" font-size="14" lengthAdjust="spacing" textLength="121.8848" x="13" y="698.0117">-ubicacion: String</text></g><!--class Plato--><g class="entity" data-qualified-name="Plato" data-source-line="29" id="ent0003"><rect fill="#F1F1F1" height="212.8828" rx="2.5" ry="2.5" style="stroke:#181818;stroke-width:0.5;" width="272.0596" x="396.34" y="280.4"/><ellipse cx="511.4435" cy="296.4" fill="#ADD1B2" rx="11" ry="11" style="stroke:#181818;stroke-width:1;"/><path d="M513.9167,302.5431 Q513.3356,302.8419 512.6964,302.9913 Q512.0573,303.1407 511.3517,303.1407 Q508.8449,303.1407 507.5251,301.4889 Q506.2052,299.837 506.2052,296.7159 Q506.2052,293.5865 507.5251,291.9347 Q508.8449,290.2828 511.3517,290.2828 Q512.0573,290.2828 512.7047,290.4322 Q513.3522,290.5816 513.9167,290.8805 L513.9167,293.6031 Q513.2858,293.0221 512.6923,292.7523 Q512.0988,292.4825 511.4679,292.4825 Q510.1232,292.4825 509.4384,293.5492 Q508.7536,294.6158 508.7536,296.7159 Q508.7536,298.8077 509.4384,299.8744 Q510.1232,300.941 511.4679,300.941 Q512.0988,300.941 512.6923,300.6712 Q513.2858,300.4015 513.9167,299.8204 Z " fill="#000000"/><text fill="#000000" font-family="sans-serif" font-size="14" lengthAdjust="spacing" textLength="33.3525" x="531.9435" y="301.691">Plato</text><line style="stroke:#181818;stroke-width:0.5;" x1="397.34" x2="667.3996" y1="312.4" y2="312.4"/><text fill="#000000" font-family="sans-serif" font-size="14" lengthAdjust="spacing" textLength="63.7383" x="402.34" y="329.9352">-id: UUID</text><text fill="#000000" font-family="sans-serif" font-size="14" lengthAdjust="spacing" textLength="109.6279" x="402.34" y="346.4234">-nombre: String</text><text fill="#000000" font-family="sans-serif" font-size="14" lengthAdjust="spacing" textLength="134.9414" x="402.34" y="362.9117">-descripcion: String</text><text fill="#000000" font-family="sans-serif" font-size="14" lengthAdjust="spacing" textLength="103.5781" x="402.34" y="379.4">-precio: Money</text><text fill="#000000" font-family="sans-serif" font-size="14" lengthAdjust="spacing" textLength="143.7324" x="402.34" y="395.8883">-stockDisponible: int</text><text fill="#000000" font-family="sans-serif" font-size="14" lengthAdjust="spacing" textLength="222.2637" x="402.34" y="412.3766">-stockSincronizadoEn: DateTime</text><text fill="#000000" font-family="sans-serif" font-size="14" lengthAdjust="spacing" textLength="84.1777" x="402.34" y="428.8648">-version: int</text><text fill="#000000" font-family="sans-serif" font-size="14" lengthAdjust="spacing" textLength="111.2686" x="402.34" y="445.3531">-activo: boolean</text><line style="stroke:#181818;stroke-width:0.5;" x1="397.34" x2="667.3996" y1="452.3063" y2="452.3063"/><text fill="#000000" font-family="sans-serif" font-size="14" lengthAdjust="spacing" textLength="228.8945" x="402.34" y="469.8414">+hayStock(cantidad: int): boolean</text><text fill="#000000" font-family="sans-serif" font-size="14" lengthAdjust="spacing" textLength="260.0596" x="402.34" y="486.3297">+reservarStock(cantidad: int): boolean</text></g><!--class InventarioReservado--><g class="entity" data-qualified-name="InventarioReservado" data-source-line="42" id="ent0004"><rect fill="#F1F1F1" height="179.9063" rx="2.5" ry="2.5" style="stroke:#181818;stroke-width:0.5;" width="243.5605" x="410.59" y="570.28"/><ellipse cx="459.3678" cy="586.28" fill="#ADD1B2" rx="11" ry="11" style="stroke:#181818;stroke-width:1;"/><path d="M461.841,592.4231 Q461.2599,592.7219 460.6208,592.8713 Q459.9816,593.0207 459.276,593.0207 Q456.7692,593.0207 455.4494,591.3689 Q454.1296,589.717 454.1296,586.5959 Q454.1296,583.4665 455.4494,581.8147 Q456.7692,580.1628 459.276,580.1628 Q459.9816,580.1628 460.6291,580.3122 Q461.2765,580.4616 461.841,580.7605 L461.841,583.4831 Q461.2101,582.9021 460.6166,582.6323 Q460.0231,582.3625 459.3922,582.3625 Q458.0475,582.3625 457.3627,583.4292 Q456.6779,584.4958 456.6779,586.5959 Q456.6779,588.6877 457.3627,589.7544 Q458.0475,590.821 459.3922,590.821 Q460.0231,590.821 460.6166,590.5512 Q461.2101,590.2815 461.841,589.7004 Z " fill="#000000"/><text fill="#000000" font-family="sans-serif" font-size="14" lengthAdjust="spacing" textLength="137.5049" x="479.8678" y="591.571">InventarioReservado</text><line style="stroke:#181818;stroke-width:0.5;" x1="411.59" x2="653.1505" y1="602.28" y2="602.28"/><text fill="#000000" font-family="sans-serif" font-size="14" lengthAdjust="spacing" textLength="63.7383" x="416.59" y="619.8152">-id: UUID</text><text fill="#000000" font-family="sans-serif" font-size="14" lengthAdjust="spacing" textLength="131.6055" x="416.59" y="636.3034">-cupoAsignado: int</text><text fill="#000000" font-family="sans-serif" font-size="14" lengthAdjust="spacing" textLength="145.5303" x="416.59" y="652.7917">-cupoConsumido: int</text><text fill="#000000" font-family="sans-serif" font-size="14" lengthAdjust="spacing" textLength="84.1777" x="416.59" y="669.28">-version: int</text><text fill="#000000" font-family="sans-serif" font-size="14" lengthAdjust="spacing" textLength="142.1191" x="416.59" y="685.7683">-fechaVigencia: Date</text><line style="stroke:#181818;stroke-width:0.5;" x1="411.59" x2="653.1505" y1="692.7214" y2="692.7214"/><text fill="#000000" font-family="sans-serif" font-size="14" lengthAdjust="spacing" textLength="117.8652" x="416.59" y="710.2566">+disponible(): int</text><text fill="#000000" font-family="sans-serif" font-size="14" lengthAdjust="spacing" textLength="228.4365" x="416.59" y="726.7448">+asignarCupo(cantidad: int): void</text><text fill="#000000" font-family="sans-serif" font-size="14" lengthAdjust="spacing" textLength="231.5605" x="416.59" y="743.2331">+consumir(cantidad: int): boolean</text></g><!--class Administrador--><g class="entity" data-qualified-name="Administrador" data-source-line="53" id="ent0005"><rect fill="#F4F4F4" height="40.6211" rx="2.5" ry="2.5" style="stroke:#9E9E9E;stroke-width:0.5;" width="129.2959" x="231.72" y="366.53"/><ellipse cx="246.72" cy="386.8405" fill="#ADD1B2" rx="11" ry="11" style="stroke:#181818;stroke-width:1;"/><path d="M249.1931,392.9836 Q248.6121,393.2824 247.9729,393.4319 Q247.3338,393.5813 246.6282,393.5813 Q244.1214,393.5813 242.8015,391.9294 Q241.4817,390.2776 241.4817,387.1565 Q241.4817,384.0271 242.8015,382.3752 Q244.1214,380.7234 246.6282,380.7234 Q247.3338,380.7234 247.9812,380.8728 Q248.6287,381.0222 249.1931,381.321 L249.1931,384.0437 Q248.5623,383.4626 247.9688,383.1928 Q247.3753,382.9231 246.7444,382.9231 Q245.3997,382.9231 244.7149,383.9897 Q244.0301,385.0564 244.0301,387.1565 Q244.0301,389.2483 244.7149,390.3149 Q245.3997,391.3816 246.7444,391.3816 Q247.3753,391.3816 247.9688,391.1118 Q248.5623,390.842 249.1931,390.261 Z " fill="#000000"/><text fill="#000000" font-family="sans-serif" font-size="12" font-style="italic" lengthAdjust="spacing" textLength="63.9316" x="277.4021" y="383.1316">&#171;contexto&#187;</text><text fill="#555555" font-family="sans-serif" font-size="14" lengthAdjust="spacing" textLength="97.2959" x="260.72" y="399.198">Administrador</text></g><!--class Operador--><g class="entity" data-qualified-name="Operador" data-source-line="54" id="ent0006"><rect fill="#F4F4F4" height="40.6211" rx="2.5" ry="2.5" style="stroke:#9E9E9E;stroke-width:0.5;" width="96.0869" x="100.33" y="366.53"/><ellipse cx="115.33" cy="386.8405" fill="#ADD1B2" rx="11" ry="11" style="stroke:#181818;stroke-width:1;"/><path d="M117.8031,392.9836 Q117.2221,393.2824 116.5829,393.4319 Q115.9438,393.5813 115.2382,393.5813 Q112.7314,393.5813 111.4115,391.9294 Q110.0917,390.2776 110.0917,387.1565 Q110.0917,384.0271 111.4115,382.3752 Q112.7314,380.7234 115.2382,380.7234 Q115.9438,380.7234 116.5912,380.8728 Q117.2387,381.0222 117.8031,381.321 L117.8031,384.0437 Q117.1723,383.4626 116.5788,383.1928 Q115.9853,382.9231 115.3544,382.9231 Q114.0097,382.9231 113.3249,383.9897 Q112.6401,385.0564 112.6401,387.1565 Q112.6401,389.2483 113.3249,390.3149 Q114.0097,391.3816 115.3544,391.3816 Q115.9853,391.3816 116.5788,391.1118 Q117.1723,390.842 117.8031,390.261 Z " fill="#000000"/><text fill="#000000" font-family="sans-serif" font-size="12" font-style="italic" lengthAdjust="spacing" textLength="63.9316" x="129.4076" y="383.1316">&#171;contexto&#187;</text><text fill="#555555" font-family="sans-serif" font-size="14" lengthAdjust="spacing" textLength="64.0869" x="129.33" y="399.198">Operador</text></g><!--class IntegracionERP--><g class="entity" data-qualified-name="IntegracionERP" data-source-line="55" id="ent0007"><rect fill="#F4F4F4" height="40.6211" rx="2.5" ry="2.5" style="stroke:#9E9E9E;stroke-width:0.5;" width="132.6318" x="703.05" y="366.53"/><ellipse cx="718.05" cy="386.8405" fill="#ADD1B2" rx="11" ry="11" style="stroke:#181818;stroke-width:1;"/><path d="M720.5231,392.9836 Q719.9421,393.2824 719.3029,393.4319 Q718.6638,393.5813 717.9582,393.5813 Q715.4514,393.5813 714.1315,391.9294 Q712.8117,390.2776 712.8117,387.1565 Q712.8117,384.0271 714.1315,382.3752 Q715.4514,380.7234 717.9582,380.7234 Q718.6638,380.7234 719.3112,380.8728 Q719.9587,381.0222 720.5231,381.321 L720.5231,384.0437 Q719.8923,383.4626 719.2988,383.1928 Q718.7053,382.9231 718.0744,382.9231 Q716.7297,382.9231 716.0449,383.9897 Q715.3601,385.0564 715.3601,387.1565 Q715.3601,389.2483 716.0449,390.3149 Q716.7297,391.3816 718.0744,391.3816 Q718.7053,391.3816 719.2988,391.1118 Q719.8923,390.842 720.5231,390.261 Z " fill="#000000"/><text fill="#000000" font-family="sans-serif" font-size="12" font-style="italic" lengthAdjust="spacing" textLength="63.9316" x="750.4001" y="383.1316">&#171;contexto&#187;</text><text fill="#555555" font-family="sans-serif" font-size="14" lengthAdjust="spacing" textLength="100.6318" x="732.05" y="399.198">IntegracionERP</text></g><!--class ProgramaFidelidad--><g class="entity" data-qualified-name="ProgramaFidelidad" data-source-line="56" id="ent0008"><rect fill="#F4F4F4" height="40.6211" rx="2.5" ry="2.5" style="stroke:#9E9E9E;stroke-width:0.5;" width="158.6699" x="871.03" y="366.53"/><ellipse cx="886.03" cy="386.8405" fill="#ADD1B2" rx="11" ry="11" style="stroke:#181818;stroke-width:1;"/><path d="M888.5031,392.9836 Q887.9221,393.2824 887.2829,393.4319 Q886.6438,393.5813 885.9382,393.5813 Q883.4314,393.5813 882.1115,391.9294 Q880.7917,390.2776 880.7917,387.1565 Q880.7917,384.0271 882.1115,382.3752 Q883.4314,380.7234 885.9382,380.7234 Q886.6438,380.7234 887.2912,380.8728 Q887.9387,381.0222 888.5031,381.321 L888.5031,384.0437 Q887.8723,383.4626 887.2788,383.1928 Q886.6853,382.9231 886.0544,382.9231 Q884.7097,382.9231 884.0249,383.9897 Q883.3401,385.0564 883.3401,387.1565 Q883.3401,389.2483 884.0249,390.3149 Q884.7097,391.3816 886.0544,391.3816 Q886.6853,391.3816 887.2788,391.1118 Q887.8723,390.842 888.5031,390.261 Z " fill="#000000"/><text fill="#000000" font-family="sans-serif" font-size="12" font-style="italic" lengthAdjust="spacing" textLength="63.9316" x="931.3991" y="383.1316">&#171;contexto&#187;</text><text fill="#555555" font-family="sans-serif" font-size="14" lengthAdjust="spacing" textLength="126.6699" x="900.03" y="399.198">ProgramaFidelidad</text></g><g class="entity" data-qualified-name="GMN9" data-source-line="59" id="ent0010"><path d="M268.27,811.19 L268.27,913.0533 A0,0 0 0 0 268.27,913.0533 L796.4731,913.0533 A0,0 0 0 0 796.4731,913.0533 L796.4731,821.19 L786.4731,811.19 L536.37,811.19 L532.37,750.65 L528.37,811.19 L268.27,811.19 A0,0 0 0 0 268.27,811.19" fill="#FEFFDD" style="stroke:#181818;stroke-width:0.5;"/><path d="M786.4731,811.19 L786.4731,821.19 L796.4731,821.19 L786.4731,811.19" fill="#FEFFDD" style="stroke:#181818;stroke-width:0.5;"/><text fill="#000000" font-family="sans-serif" font-size="13" lengthAdjust="spacing" textLength="33.23" x="274.27" y="828.7584">Cupo</text><text fill="#000000" font-family="sans-serif" font-size="13" font-weight="700" lengthAdjust="spacing" textLength="148.1162" x="311.6133" y="828.7584">exclusivo para Aliflow</text><text fill="#000000" font-family="sans-serif" font-size="13" lengthAdjust="spacing" textLength="264.2466" x="463.8428" y="828.7584">que el proveedor aparta de su producci&#243;n</text><text fill="#000000" font-family="sans-serif" font-size="13" lengthAdjust="spacing" textLength="454.4731" x="274.27" y="844.0689">(de 100 almuerzos: 75 caja, 25 Aliflow). La disponibilidad vendible es el</text><text fill="#000000" font-family="sans-serif" font-size="13" font-weight="700" lengthAdjust="spacing" textLength="368.0752" x="274.27" y="859.3795">m&#237;nimo entre `disponible()` y `Plato.stockDisponible`</text><text fill="#000000" font-family="sans-serif" font-size="13" lengthAdjust="spacing" textLength="135.0146" x="646.4585" y="859.3795">sincronizado del ERP:</text><text fill="#000000" font-family="sans-serif" font-size="13" lengthAdjust="spacing" textLength="103.1304" x="274.27" y="874.69">doble control. El</text><text fill="#000000" font-family="sans-serif" font-size="13" font-weight="700" lengthAdjust="spacing" textLength="319.8521" x="381.5137" y="874.69">descuento transaccional se aplica sobre el cupo</text><text fill="#000000" font-family="sans-serif" font-size="13" lengthAdjust="spacing" textLength="30.9385" x="701.3657" y="874.69">, con</text><text fill="#000000" font-family="sans-serif" font-size="13" lengthAdjust="spacing" textLength="486.7446" x="274.27" y="890.0005">`version` como bloqueo optimista; si el stock del ERP est&#225; vencido, se valida</text><text fill="#000000" font-family="sans-serif" font-size="13" lengthAdjust="spacing" textLength="301.3867" x="274.27" y="905.3111">solo contra el cupo y la venta no se interrumpe.</text></g><!--reverse link Proveedor to Administrador--><g class="link" data-entity-1="ent0001" data-entity-2="ent0005" data-link-type="composition" data-source-line="67" id="lnk12"><path codeLine="67" d="M372.1227,214.4695 C367.3827,224.4995 367.82,223.72 363.37,233.4 C341.53,280.95 317.08,337.46 304.63,366.5" fill="none" id="Proveedor-backto-Administrador" style="stroke:#181818;stroke-width:1;"/><polygon fill="#181818" points="377.25,203.62,371.0699,207.3356,372.1227,214.4695,378.3029,210.7538,377.25,203.62" style="stroke:#181818;stroke-width:1;stroke-linejoin:miter;stroke-miterlimit:10;"/><text fill="#000000" font-family="sans-serif" font-size="13" lengthAdjust="spacing" textLength="102.1401" x="364.37" y="246.9684">gerencia el local</text><text fill="#000000" font-family="sans-serif" font-size="13" lengthAdjust="spacing" textLength="8.2202" x="365.5043" y="223.9785">1</text><text fill="#000000" font-family="sans-serif" font-size="13" lengthAdjust="spacing" textLength="22.7119" x="281.9303" y="355.9358">1..*</text></g><!--reverse link Proveedor to Operador--><g class="link" data-entity-1="ent0001" data-entity-2="ent0006" data-link-type="composition" data-source-line="68" id="lnk13"><path codeLine="68" d="M255.8061,199.5334 C239.5061,212.0634 233.62,218.51 220.37,233.4 C184.47,273.74 162.92,335.11 153.68,366.25" fill="none" id="Proveedor-backto-Operador" style="stroke:#181818;stroke-width:1;"/><polygon fill="#181818" points="265.32,192.22,258.1253,192.7054,255.8061,199.5334,263.0009,199.048,265.32,192.22" style="stroke:#181818;stroke-width:1;stroke-linejoin:miter;stroke-miterlimit:10;"/><text fill="#000000" font-family="sans-serif" font-size="13" lengthAdjust="spacing" textLength="126.0327" x="221.37" y="246.9684">personal de entrega</text><text fill="#000000" font-family="sans-serif" font-size="13" lengthAdjust="spacing" textLength="8.2202" x="249.4278" y="193.6478">1</text><text fill="#000000" font-family="sans-serif" font-size="13" lengthAdjust="spacing" textLength="22.7119" x="130.1788" y="355.9616">0..*</text></g><!--reverse link Proveedor to PuntoDeEntrega--><g class="link" data-entity-1="ent0001" data-entity-2="ent0002" data-link-type="composition" data-source-line="69" id="lnk14"><path codeLine="69" d="M254.3702,151.0725 C185.7102,177.3025 123.11,214.91 82.37,280.4 C17.14,385.26 44.9,540.08 64.34,615.17" fill="none" id="Proveedor-backto-PuntoDeEntrega" style="stroke:#181818;stroke-width:1;"/><polygon fill="#181818" points="265.58,146.79,258.5476,145.1946,254.3702,151.0725,261.4026,152.6678,265.58,146.79" style="stroke:#181818;stroke-width:1;stroke-linejoin:miter;stroke-miterlimit:10;"/><text fill="#000000" font-family="sans-serif" font-size="13" lengthAdjust="spacing" textLength="8.2202" x="249.7004" y="146.0172">1</text><text fill="#000000" font-family="sans-serif" font-size="13" lengthAdjust="spacing" textLength="22.7119" x="38.715" y="604.7135">0..*</text></g><!--reverse link Proveedor to Plato--><g class="link" data-entity-1="ent0001" data-entity-2="ent0003" data-link-type="composition" data-source-line="70" id="lnk15"><path codeLine="70" d="M466.3138,214.804 C475.8738,239.554 481.86,255.06 491.57,280.2" fill="none" id="Proveedor-backto-Plato" style="stroke:#181818;stroke-width:1;"/><polygon fill="#181818" points="461.99,203.61,460.4206,210.6482,466.3138,214.804,467.8832,207.7657,461.99,203.61" style="stroke:#181818;stroke-width:1;stroke-linejoin:miter;stroke-miterlimit:10;"/><text fill="#000000" font-family="sans-serif" font-size="13" lengthAdjust="spacing" textLength="35.5151" x="479.37" y="246.9684">men&#250;</text><text fill="#000000" font-family="sans-serif" font-size="13" lengthAdjust="spacing" textLength="8.2202" x="456.4674" y="223.9677">1</text><text fill="#000000" font-family="sans-serif" font-size="13" lengthAdjust="spacing" textLength="22.7119" x="465.9529" y="269.7537">0..*</text></g><!--reverse link Proveedor to IntegracionERP--><g class="link" data-entity-1="ent0001" data-entity-2="ent0007" data-link-type="composition" data-source-line="71" id="lnk16"><path codeLine="71" d="M593.0876,206.8012 C628.6676,230.9612 655.16,251.59 686.37,280.4 C714.96,306.78 741.57,343.62 756.62,366.04" fill="none" id="Proveedor-backto-IntegracionERP" style="stroke:#181818;stroke-width:1;"/><polygon fill="#181818" points="583.16,200.06,585.8767,206.7398,593.0876,206.8012,590.3708,200.1214,583.16,200.06" style="stroke:#181818;stroke-width:1;stroke-linejoin:miter;stroke-miterlimit:10;"/><text fill="#000000" font-family="sans-serif" font-size="13" lengthAdjust="spacing" textLength="8.2202" x="591.0507" y="201.8675">1</text><text fill="#000000" font-family="sans-serif" font-size="13" lengthAdjust="spacing" textLength="8.2202" x="743.9412" y="355.6925">1</text></g><!--reverse link Proveedor to ProgramaFidelidad--><g class="link" data-entity-1="ent0001" data-entity-2="ent0008" data-link-type="composition" data-source-line="72" id="lnk17"><path codeLine="72" d="M594.6979,155.8527 C679.3979,184.7327 771.38,223.53 853.37,280.4 C888.12,304.5 919.49,343.09 936.65,366.29" fill="none" id="Proveedor-backto-ProgramaFidelidad" style="stroke:#181818;stroke-width:1;"/><polygon fill="#181818" points="583.34,151.98,587.7281,157.7023,594.6979,155.8527,590.3099,150.1304,583.34,151.98" style="stroke:#181818;stroke-width:1;stroke-linejoin:miter;stroke-miterlimit:10;"/><text fill="#000000" font-family="sans-serif" font-size="13" lengthAdjust="spacing" textLength="8.2202" x="590.7298" y="151.3354">1</text><text fill="#000000" font-family="sans-serif" font-size="13" lengthAdjust="spacing" textLength="24.667" x="905.1942" y="355.6641">0..1</text></g><!--reverse link Plato to InventarioReservado--><g class="link" data-entity-1="ent0003" data-entity-2="ent0004" data-link-type="composition" data-source-line="73" id="lnk18"><path codeLine="73" d="M532.37,505.54 C532.37,530.85 532.37,545.61 532.37,570.08" fill="none" id="Plato-backto-InventarioReservado" style="stroke:#181818;stroke-width:1;"/><polygon fill="#181818" points="532.37,493.54,528.37,499.54,532.37,505.54,536.37,499.54,532.37,493.54" style="stroke:#181818;stroke-width:1;stroke-linejoin:miter;stroke-miterlimit:10;"/><text fill="#000000" font-family="sans-serif" font-size="13" lengthAdjust="spacing" textLength="78.0317" x="533.37" y="536.8484">cupo Aliflow</text><text fill="#000000" font-family="sans-serif" font-size="13" lengthAdjust="spacing" textLength="8.2202" x="524.1087" y="513.7915">1</text><text fill="#000000" font-family="sans-serif" font-size="13" lengthAdjust="spacing" textLength="24.667" x="507.4038" y="559.5743">0..1</text></g><!--link Operador to PuntoDeEntrega--><g class="link" data-entity-1="ent0006" data-entity-2="ent0002" data-link-type="dependency" data-source-line="74" id="lnk19"><path codeLine="74" d="M143.26,407.36 C131.96,450.56 105.8556,550.3628 90.1756,610.2928" fill="none" id="Operador-to-PuntoDeEntrega" style="stroke:#181818;stroke-width:1;"/><polygon fill="#181818" points="88.91,615.13,95.0578,607.4356,90.1756,610.2928,87.3183,605.4106,88.91,615.13" style="stroke:#181818;stroke-width:1;stroke-linejoin:miter;stroke-miterlimit:10;"/><text fill="#000000" font-family="sans-serif" font-size="13" lengthAdjust="spacing" textLength="63.2798" x="113.87" y="536.8484">trabaja en</text><text fill="#000000" font-family="sans-serif" font-size="13" lengthAdjust="spacing" textLength="22.7119" x="116.8282" y="427.8525">0..*</text><text fill="#000000" font-family="sans-serif" font-size="13" lengthAdjust="spacing" textLength="8.2202" x="82.0815" y="604.6674">1</text></g><?plantuml-src ZLN1RYCt3BtFLn3f9Pd4HhPeiEXq4S1hEsY0Bhg8kpsRrj1ZDHfnAcdSE8j-J3-WfxtrcXyhfR4Tst6sjG_sK4_a8_d8yVVQDkYm1cNG-q48Ji_QGBUAxKG_4bncVWjfKDrZHPEmCWIEL41R6Te191_mEGDuBz3ASMlB8Hjsxzw9lq0FWQ-luPkRx-8tejYLv8uWlX_7ho1kn7Za_2fziZ-pXIu9g6x22cggP-HybdKiFZfU4fNi4fyUwBA0JvzkH-d1SZrpDEIQdD9e2fX8thPAPwvLUyzpKWiSc805Z33GBxgcP4SLz98Bc34RGfji2tRu0HzqZNSKj9FJBLorP0E-HwlGQHoH3zhoNY3bg2GR-P1VK-EXdZiiqUy0pq4gCTTLwz3zU13lTD55F2jWoRgK0csgqTh08nhRuAZ2rqkoHwYTQOL2mcwjp_uC1lwVRahookbcpr6qDo8XBINum9PMoU83g_kHzWrRFJFYHTlmV33HLZavUSIIn_QW6qjfVGgmkVAoFUUmmDKaUZfLQ8CkiKpmitsG8qzkYUxho6qbRkqoDjPflkikbaVhejg61rvNLiwVIKRhaArlQxrhVf5Cqk2lkahow39FNCjjhKxFDkXpm1J73SNv2_v95ciHnR3klpCSbBMssWSHeapJxY2k0JytzEhPhJnNBgbeVFVn6486LG0rtiWecqXa7vHP3YIaGk0QU7witf9Fp1Nod1wKQRtq7U92We7HSyD_v3dytigQC2AvpL900GGKRO9lexbibT9FNw84JiNuvl8IqDGjkKUMuNjx1Gf_mmluzchZzAmFF-6s0RfZBjJAs0qWB-74LvxNJtzRNJDG73sOxdPi2YkOfadg7oX_AfJzZjo5fm6fNo4kIuu1OeKScpwCZGI98nRt2uDqoNfKiTvem9CaQcIAmRECPIn1b5oUNqG7ucowbjfKdeNapB1KYe6Re6jfEVuWDEAjn6_3Gh8BJt_5P9N8zY96MM8iW3ZqigmxShY99baQXDGrMGyHBK8ZvzgweNuc5OFOuYnxtjWdRquWx_Najz_FJmu4M415BWr2361OeJbszJ9TtKgp0FddKr7Y6wFRWw_Vsz-NNy6bFLZ8oyS-_NCqWvE34NZ5b_nzCGXPv_q0TcpX55sXrzBCjbclMVPwrydBmLkWY6gPYQwb7jc_?></g></svg>