<svg xmlns="http://www.w3.org/2000/svg" xmlns:xlink="http://www.w3.org/1999/xlink" contentStyleType="text/css" data-diagram-type="CLASS" height="482px" preserveAspectRatio="none" style="width:2056px;height:482px;background:#FFFFFF;" version="1.1" viewBox="0 0 2056 482" width="2056px" zoomAndPan="magnify"><?plantuml 1.2026.6?><defs/><g><g class="entity" data-qualified-name="baru" data-source-line="4" id="ent0001"><rect fill="#F1F1F1" height="77.9531" rx="2.5" ry="2.5" style="stroke:#181818;stroke-width:0.5;" width="193.2275" x="371.94" y="7"/><text fill="#000000" font-family="sans-serif" font-size="14" lengthAdjust="spacing" textLength="112.3008" x="412.4034" y="22.5352">baru : Proveedor</text><line style="stroke:#181818;stroke-width:0.5;" x1="372.94" x2="564.1675" y1="27.4883" y2="27.4883"/><text fill="#000000" font-family="sans-serif" font-size="14" lengthAdjust="spacing" textLength="181.2275" x="377.94" y="45.0234">nombreComercial = "Bar&#250;"</text><text fill="#000000" font-family="sans-serif" font-size="14" lengthAdjust="spacing" textLength="167.1182" x="377.94" y="61.5117">ruc = "0991234567001"</text><text fill="#000000" font-family="sans-serif" font-size="14" lengthAdjust="spacing" textLength="87.4727" x="377.94" y="78">activo = true</text></g><g class="entity" data-qualified-name="integBaru" data-source-line="10" id="ent0002"><rect fill="#F1F1F1" height="77.9531" rx="2.5" ry="2.5" style="stroke:#181818;stroke-width:0.5;" width="392.5635" x="338.27" y="369.5"/><text fill="#000000" font-family="sans-serif" font-size="14" lengthAdjust="spacing" textLength="178.623" x="445.2402" y="385.0352">integBaru : IntegracionERP</text><line style="stroke:#181818;stroke-width:0.5;" x1="339.27" x2="729.8335" y1="389.9883" y2="389.9883"/><text fill="#000000" font-family="sans-serif" font-size="14" lengthAdjust="spacing" textLength="157.2129" x="344.27" y="407.5234">tipoERP = "CONTIFICO"</text><text fill="#000000" font-family="sans-serif" font-size="14" lengthAdjust="spacing" textLength="380.5635" x="344.27" y="424.0117">endpoint = "https://api.contifico.com/sistema/api/v1/"</text><text fill="#000000" font-family="sans-serif" font-size="14" lengthAdjust="spacing" textLength="352.2559" x="344.27" y="440.5">ultimaSincronizacionExitosa = "2026-07-27 12:16"</text></g><g class="entity" data-qualified-name="caramel" data-source-line="16" id="ent0003"><rect fill="#F1F1F1" height="77.9531" rx="2.5" ry="2.5" style="stroke:#181818;stroke-width:0.5;" width="267.4316" x="1418.83" y="7"/><text fill="#000000" font-family="sans-serif" font-size="14" lengthAdjust="spacing" textLength="134.6201" x="1485.2358" y="22.5352">caramel : Proveedor</text><line style="stroke:#181818;stroke-width:0.5;" x1="1419.83" x2="1685.2616" y1="27.4883" y2="27.4883"/><text fill="#000000" font-family="sans-serif" font-size="14" lengthAdjust="spacing" textLength="255.4316" x="1424.83" y="45.0234">nombreComercial = "Caramel Coffee"</text><text fill="#000000" font-family="sans-serif" font-size="14" lengthAdjust="spacing" textLength="167.1182" x="1424.83" y="61.5117">ruc = "0997654321001"</text><text fill="#000000" font-family="sans-serif" font-size="14" lengthAdjust="spacing" textLength="87.4727" x="1424.83" y="78">activo = true</text></g><g class="entity" data-qualified-name="integCaramel" data-source-line="22" id="ent0004"><rect fill="#F1F1F1" height="77.9531" rx="2.5" ry="2.5" style="stroke:#181818;stroke-width:0.5;" width="364.2559" x="1036.42" y="369.5"/><text fill="#000000" font-family="sans-serif" font-size="14" lengthAdjust="spacing" textLength="204.2168" x="1116.4395" y="385.0352">integCaramel : IntegracionERP</text><line style="stroke:#181818;stroke-width:0.5;" x1="1037.42" x2="1399.6759" y1="389.9883" y2="389.9883"/><text fill="#000000" font-family="sans-serif" font-size="14" lengthAdjust="spacing" textLength="132.5352" x="1042.42" y="407.5234">tipoERP = "ALPWIN"</text><text fill="#000000" font-family="sans-serif" font-size="14" lengthAdjust="spacing" textLength="264.9541" x="1042.42" y="424.0117">endpoint = "(sin API p&#250;blica conocida)"</text><text fill="#000000" font-family="sans-serif" font-size="14" lengthAdjust="spacing" textLength="352.2559" x="1042.42" y="440.5">ultimaSincronizacionExitosa = "2026-07-20 09:12"</text></g><g class="entity" data-qualified-name="factory" data-source-line="28" id="ent0005"><rect fill="#F1F1F1" height="36.4883" rx="2.5" ry="2.5" style="stroke:#181818;stroke-width:0.5;" width="232.9824" x="1034.06" y="199.18"/><text fill="#000000" font-family="sans-serif" font-size="14" lengthAdjust="spacing" textLength="218.9824" x="1041.06" y="214.7152">factory : ProviderAdapterFactory</text><line style="stroke:#181818;stroke-width:0.5;" x1="1035.06" x2="1266.0424" y1="219.6683" y2="219.6683"/></g><g class="entity" data-qualified-name="adapterBaru" data-source-line="30" id="ent0006"><rect fill="#F1F1F1" height="36.4883" rx="2.5" ry="2.5" style="stroke:#181818;stroke-width:0.5;" width="224.3418" x="1435.38" y="390.23"/><text fill="#000000" font-family="sans-serif" font-size="14" lengthAdjust="spacing" textLength="210.3418" x="1442.38" y="405.7652">adapterBaru : ContificoAdapter</text><line style="stroke:#181818;stroke-width:0.5;" x1="1436.38" x2="1658.7218" y1="410.7183" y2="410.7183"/></g><g class="entity" data-qualified-name="adapterCaramel" data-source-line="32" id="ent0007"><rect fill="#F1F1F1" height="36.4883" rx="2.5" ry="2.5" style="stroke:#181818;stroke-width:0.5;" width="234.7529" x="766.17" y="390.23"/><text fill="#000000" font-family="sans-serif" font-size="14" lengthAdjust="spacing" textLength="220.7529" x="773.17" y="405.7652">adapterCaramel : AlpwinAdapter</text><line style="stroke:#181818;stroke-width:0.5;" x1="767.17" x2="999.9229" y1="410.7183" y2="410.7183"/></g><g class="entity" data-qualified-name="worker" data-source-line="34" id="ent0008"><rect fill="#F1F1F1" height="36.4883" rx="2.5" ry="2.5" style="stroke:#181818;stroke-width:0.5;" width="220.9033" x="1040.1" y="27.74"/><text fill="#000000" font-family="sans-serif" font-size="14" lengthAdjust="spacing" textLength="206.9033" x="1047.1" y="43.2752">worker : SincronizacionWorker</text><line style="stroke:#181818;stroke-width:0.5;" x1="1041.1" x2="1260.0033" y1="48.2283" y2="48.2283"/></g><g class="entity" data-qualified-name="eventoOk" data-source-line="36" id="ent0009"><rect fill="#F1F1F1" height="110.9297" rx="2.5" ry="2.5" style="stroke:#181818;stroke-width:0.5;" width="269.7285" x="211.68" y="161.96"/><text fill="#000000" font-family="sans-serif" font-size="14" lengthAdjust="spacing" textLength="221.6484" x="235.72" y="177.4952">eventoOk : EventoSincronizacion</text><line style="stroke:#181818;stroke-width:0.5;" x1="212.68" x2="480.4085" y1="182.4483" y2="182.4483"/><text fill="#000000" font-family="sans-serif" font-size="14" lengthAdjust="spacing" textLength="228.7373" x="217.68" y="199.9834">tipoEvento = "NOTIFICAR_VENTA"</text><text fill="#000000" font-family="sans-serif" font-size="14" lengthAdjust="spacing" textLength="218.4355" x="217.68" y="216.4717">payload = "ORD-2026-000482"</text><text fill="#000000" font-family="sans-serif" font-size="14" lengthAdjust="spacing" textLength="159.0654" x="217.68" y="232.96">estado = "PROCESADO"</text><text fill="#000000" font-family="sans-serif" font-size="14" lengthAdjust="spacing" textLength="84.2734" x="217.68" y="249.4483">intentos = 1</text><text fill="#000000" font-family="sans-serif" font-size="14" lengthAdjust="spacing" textLength="257.7285" x="217.68" y="265.9366">fechaCreacion = "2026-07-27 12:15"</text></g><g class="entity" data-qualified-name="eventoFallido" data-source-line="44" id="ent0010"><rect fill="#F1F1F1" height="110.9297" rx="2.5" ry="2.5" style="stroke:#181818;stroke-width:0.5;" width="269.7285" x="1579.68" y="161.96"/><text fill="#000000" font-family="sans-serif" font-size="14" lengthAdjust="spacing" textLength="247.3789" x="1590.8548" y="177.4952">eventoFallido : EventoSincronizacion</text><line style="stroke:#181818;stroke-width:0.5;" x1="1580.68" x2="1848.4085" y1="182.4483" y2="182.4483"/><text fill="#000000" font-family="sans-serif" font-size="14" lengthAdjust="spacing" textLength="228.7373" x="1585.68" y="199.9834">tipoEvento = "NOTIFICAR_VENTA"</text><text fill="#000000" font-family="sans-serif" font-size="14" lengthAdjust="spacing" textLength="218.4355" x="1585.68" y="216.4717">payload = "ORD-2026-000517"</text><text fill="#000000" font-family="sans-serif" font-size="14" lengthAdjust="spacing" textLength="133.2529" x="1585.68" y="232.96">estado = "FALLIDO"</text><text fill="#000000" font-family="sans-serif" font-size="14" lengthAdjust="spacing" textLength="84.2734" x="1585.68" y="249.4483">intentos = 3</text><text fill="#000000" font-family="sans-serif" font-size="14" lengthAdjust="spacing" textLength="257.7285" x="1585.68" y="265.9366">fechaCreacion = "2026-07-27 12:41"</text></g><g class="entity" data-qualified-name="GMN24" data-source-line="68" id="ent0025"><path d="M6,365.2 L6,451.7527 A0,0 0 0 0 6,451.7527 L303.0977,451.7527 A0,0 0 0 0 303.0977,451.7527 L303.0977,375.2 L293.0977,365.2 L201.96,365.2 L290.76,273.36 L193.96,365.2 L6,365.2 A0,0 0 0 0 6,365.2" fill="#FEFFDD" style="stroke:#181818;stroke-width:0.5;"/><path d="M293.0977,365.2 L293.0977,375.2 L303.0977,375.2 L293.0977,365.2" fill="#FEFFDD" style="stroke:#181818;stroke-width:0.5;"/><text fill="#000000" font-family="sans-serif" font-size="13" lengthAdjust="spacing" textLength="257.8735" x="12" y="382.7684">Snapshot de la arquitectura multi-tenant</text><text fill="#000000" font-family="sans-serif" font-size="13" lengthAdjust="spacing" textLength="202.5981" x="12" y="398.0789">confirmada el : **cada local trae</text><text fill="#000000" font-family="sans-serif" font-size="13" lengthAdjust="spacing" textLength="268.7534" x="12" y="413.3895">su propio ERP**. Bar&#250; usa Cont&#237;fico, que s&#237;</text><text fill="#000000" font-family="sans-serif" font-size="13" lengthAdjust="spacing" textLength="276.0977" x="12" y="428.7">tiene API REST documentada &#8212; el evento se</text><text fill="#000000" font-family="sans-serif" font-size="13" lengthAdjust="spacing" textLength="163.3887" x="12" y="444.0105">procesa al primer intento.</text></g><g class="entity" data-qualified-name="GMN27" data-source-line="76" id="ent0028"><path d="M1695.18,349.89 L1695.18,467.0638 A0,0 0 0 0 1695.18,467.0638 L2041.9163,467.0638 A0,0 0 0 0 2041.9163,467.0638 L2041.9163,359.89 L2031.9163,349.89 L1825.27,349.89 L1759.3,273.36 L1817.27,349.89 L1695.18,349.89 A0,0 0 0 0 1695.18,349.89" fill="#FEFFDD" style="stroke:#181818;stroke-width:0.5;"/><path d="M2031.9163,349.89 L2031.9163,359.89 L2041.9163,359.89 L2031.9163,349.89" fill="#FEFFDD" style="stroke:#181818;stroke-width:0.5;"/><text fill="#000000" font-family="sans-serif" font-size="13" lengthAdjust="spacing" textLength="274.3647" x="1701.18" y="367.4584">El mismo core, el mismo worker y la misma</text><text fill="#000000" font-family="sans-serif" font-size="13" lengthAdjust="spacing" textLength="240.2524" x="1701.18" y="382.7689">interfaz, contra un ERP sin API p&#250;blica</text><text fill="#000000" font-family="sans-serif" font-size="13" lengthAdjust="spacing" textLength="268.0933" x="1701.18" y="398.0795">(Caramel Coffee / Alpwin): el evento agota</text><text fill="#000000" font-family="sans-serif" font-size="13" lengthAdjust="spacing" textLength="283.5562" x="1701.18" y="413.39">3 reintentos y queda FALLIDO &#8212; visible en el</text><text fill="#000000" font-family="sans-serif" font-size="13" lengthAdjust="spacing" textLength="295.9785" x="1701.18" y="428.7005">panel del proveedor (UC10) para reconciliaci&#243;n</text><text fill="#000000" font-family="sans-serif" font-size="13" lengthAdjust="spacing" textLength="243.1343" x="1701.18" y="444.0111">manual, en vez de perder la venta. Ver</text><text fill="#000000" font-family="sans-serif" font-size="13" lengthAdjust="spacing" textLength="325.7363" x="1701.18" y="459.3216">Hallazgos-Ingenieria-API-Generica.md secci&#243;n 4.3.</text></g><!--reverse link baru to integBaru--><g class="link" data-entity-1="ent0001" data-entity-2="ent0002" data-link-type="composition" data-source-line="52" id="lnk11"><path codeLine="52" d="M504.2901,95.3421 C510.0901,104.6421 509.09,104.7 512.55,114.96 C541.96,202.32 540.78,312.37 537.56,369.36" fill="none" id="baru-backto-integBaru" style="stroke:#181818;stroke-width:1;"/><polygon fill="#181818" points="497.94,85.16,497.721,92.3678,504.2901,95.3421,504.5091,88.1343,497.94,85.16" style="stroke:#181818;stroke-width:1;stroke-linejoin:miter;stroke-miterlimit:10;"/></g><!--reverse link baru to eventoOk--><g class="link" data-entity-1="ent0001" data-entity-2="ent0009" data-link-type="composition" data-source-line="53" id="lnk12"><path codeLine="53" d="M408.1889,93.2069 C398.1989,102.2169 397.34,104.29 389.55,114.96 C379.34,128.94 370.98,145.72 364.43,161.57" fill="none" id="baru-backto-eventoOk" style="stroke:#181818;stroke-width:1;"/><polygon fill="#181818" points="417.1,85.17,409.9655,86.2181,408.1889,93.2069,415.3234,92.1588,417.1,85.17" style="stroke:#181818;stroke-width:1;stroke-linejoin:miter;stroke-miterlimit:10;"/></g><!--reverse link caramel to integCaramel--><g class="link" data-entity-1="ent0003" data-entity-2="ent0004" data-link-type="composition" data-source-line="54" id="lnk13"><path codeLine="54" d="M1480.4966,91.9558 C1465.8966,101.3758 1460.58,105.08 1446.55,114.96 C1418.56,134.66 1409.02,137.05 1385.55,161.96 C1323.67,227.61 1268.35,318.23 1239.54,369.01" fill="none" id="caramel-backto-integCaramel" style="stroke:#181818;stroke-width:1;"/><polygon fill="#181818" points="1490.58,85.45,1483.3697,85.3418,1480.4966,91.9558,1487.7069,92.064,1490.58,85.45" style="stroke:#181818;stroke-width:1;stroke-linejoin:miter;stroke-miterlimit:10;"/></g><!--reverse link caramel to eventoFallido--><g class="link" data-entity-1="ent0003" data-entity-2="ent0010" data-link-type="composition" data-source-line="55" id="lnk14"><path codeLine="55" d="M1601.5542,93.745 C1611.3542,103.295 1613.13,105.21 1622.55,114.96 C1636.92,129.83 1652.15,146.32 1666,161.6" fill="none" id="caramel-backto-eventoFallido" style="stroke:#181818;stroke-width:1;"/><polygon fill="#181818" points="1592.96,85.37,1594.4654,92.4222,1601.5542,93.745,1600.0487,86.6927,1592.96,85.37" style="stroke:#181818;stroke-width:1;stroke-linejoin:miter;stroke-miterlimit:10;"/></g><!--link factory to integBaru--><g class="link" data-entity-1="ent0005" data-entity-2="ent0002" data-link-type="dependency" data-source-line="57" id="lnk15"><path codeLine="57" d="M1107.09,236.1 C1078.93,247.27 1041.33,261.67 1007.55,272.89 C945.97,293.33 795.5791,335.6174 679.6391,367.6774" fill="none" id="factory-to-integBaru" style="stroke:#181818;stroke-width:1;stroke-dasharray:7,7;"/><polygon fill="#181818" points="674.82,369.01,684.5605,370.4666,679.6391,367.6774,682.4284,362.756,674.82,369.01" style="stroke:#181818;stroke-width:1;stroke-linejoin:miter;stroke-miterlimit:10;"/><text fill="#000000" font-family="sans-serif" font-size="13" lengthAdjust="spacing" textLength="69.5957" x="908.3" y="316.4584">lee tipoERP</text></g><!--link factory to integCaramel--><g class="link" data-entity-1="ent0005" data-entity-2="ent0004" data-link-type="dependency" data-source-line="58" id="lnk16"><path codeLine="58" d="M1156.82,235.87 C1167.67,266.03 1188.4875,323.8952 1203.1175,364.5652" fill="none" id="factory-to-integCaramel" style="stroke:#181818;stroke-width:1;stroke-dasharray:7,7;"/><polygon fill="#181818" points="1204.81,369.27,1205.5275,359.4473,1203.1175,364.5652,1197.9997,362.1552,1204.81,369.27" style="stroke:#181818;stroke-width:1;stroke-linejoin:miter;stroke-miterlimit:10;"/><text fill="#000000" font-family="sans-serif" font-size="13" lengthAdjust="spacing" textLength="69.5957" x="1187.59" y="316.4584">lee tipoERP</text></g><!--link factory to adapterBaru--><g class="link" data-entity-1="ent0005" data-entity-2="ent0006" data-link-type="dependency" data-source-line="59" id="lnk17"><path codeLine="59" d="M1187.54,236.04 C1263.19,272.06 1430.2955,351.6407 1505.9955,387.6807" fill="none" id="factory-to-adapterBaru" style="stroke:#181818;stroke-width:1;stroke-dasharray:7,7;"/><polygon fill="#181818" points="1510.51,389.83,1504.1034,382.3497,1505.9955,387.6807,1500.6645,389.5728,1510.51,389.83" style="stroke:#181818;stroke-width:1;stroke-linejoin:miter;stroke-miterlimit:10;"/><text fill="#000000" font-family="sans-serif" font-size="13" lengthAdjust="spacing" textLength="26.3999" x="1361.95" y="316.4584">crea</text></g><!--link factory to adapterCaramel--><g class="link" data-entity-1="ent0005" data-entity-2="ent0007" data-link-type="dependency" data-source-line="60" id="lnk18"><path codeLine="60" d="M1125.91,235.87 C1075.17,271.79 963.6106,350.7806 912.6006,386.9006" fill="none" id="factory-to-adapterCaramel" style="stroke:#181818;stroke-width:1;stroke-dasharray:7,7;"/><polygon fill="#181818" points="908.52,389.79,918.1766,387.8535,912.6006,386.9006,913.5535,381.3245,908.52,389.79" style="stroke:#181818;stroke-width:1;stroke-linejoin:miter;stroke-miterlimit:10;"/><text fill="#000000" font-family="sans-serif" font-size="13" lengthAdjust="spacing" textLength="26.3999" x="1026.05" y="316.4584">crea</text></g><!--link worker to factory--><g class="link" data-entity-1="ent0008" data-entity-2="ent0005" data-link-type="dependency" data-source-line="61" id="lnk19"><path codeLine="61" d="M1150.55,64.47 C1150.55,96.94 1150.55,161.18 1150.55,193.77" fill="none" id="worker-to-factory" style="stroke:#181818;stroke-width:1;stroke-dasharray:7,7;"/><polygon fill="#181818" points="1150.55,198.77,1154.55,189.77,1150.55,193.77,1146.55,189.77,1150.55,198.77" style="stroke:#181818;stroke-width:1;stroke-linejoin:miter;stroke-miterlimit:10;"/><text fill="#000000" font-family="sans-serif" font-size="13" lengthAdjust="spacing" textLength="21.874" x="1151.55" y="128.5284">usa</text></g><!--link worker to eventoOk--><g class="link" data-entity-1="ent0008" data-entity-2="ent0009" data-link-type="dependency" data-source-line="62" id="lnk20"><path codeLine="62" d="M1058.09,64.68 C988.77,78.09 891.61,97.17 806.55,114.96 C697.08,137.84 578.1786,164.135 486.6186,184.685" fill="none" id="worker-to-eventoOk" style="stroke:#181818;stroke-width:1;stroke-dasharray:7,7;"/><polygon fill="#181818" points="481.74,185.78,491.3975,187.712,486.6186,184.685,489.6456,179.9061,481.74,185.78" style="stroke:#181818;stroke-width:1;stroke-linejoin:miter;stroke-miterlimit:10;"/><text fill="#000000" font-family="sans-serif" font-size="13" lengthAdjust="spacing" textLength="49.1943" x="807.55" y="128.5284">procesa</text></g><!--link worker to eventoFallido--><g class="link" data-entity-1="ent0008" data-entity-2="ent0010" data-link-type="dependency" data-source-line="63" id="lnk21"><path codeLine="63" d="M1247.37,64.72 C1307.58,76.71 1386.27,94.13 1454.55,114.96 C1497.77,128.14 1539.3505,143.3409 1580.6605,159.6809" fill="none" id="worker-to-eventoFallido" style="stroke:#181818;stroke-width:1;stroke-dasharray:7,7;"/><polygon fill="#181818" points="1585.31,161.52,1578.4122,154.4901,1580.6605,159.6809,1575.4696,161.9292,1585.31,161.52" style="stroke:#181818;stroke-width:1;stroke-linejoin:miter;stroke-miterlimit:10;"/><text fill="#000000" font-family="sans-serif" font-size="13" lengthAdjust="spacing" textLength="49.1943" x="1506.27" y="128.5284">procesa</text></g><!--link worker to adapterBaru--><g class="link" data-entity-1="ent0008" data-entity-2="ent0006" data-link-type="dependency" data-source-line="64" id="lnk22"><path codeLine="64" d="M1171.67,64.64 C1198.28,86.98 1245.26,126.79 1284.55,161.96 C1378.1,245.69 1483.27,345.8306 1525.69,386.4806" fill="none" id="worker-to-adapterBaru" style="stroke:#181818;stroke-width:1;stroke-dasharray:7,7;"/><polygon fill="#181818" points="1529.3,389.94,1525.5694,380.825,1525.69,386.4806,1520.0344,386.6011,1529.3,389.94" style="stroke:#181818;stroke-width:1;stroke-linejoin:miter;stroke-miterlimit:10;"/><text fill="#000000" font-family="sans-serif" font-size="13" lengthAdjust="spacing" textLength="114.3721" x="1402.78" y="222.4884">invoca notifySale()</text></g><!--link worker to adapterCaramel--><g class="link" data-entity-1="ent0008" data-entity-2="ent0007" data-link-type="dependency" data-source-line="65" id="lnk23"><path codeLine="65" d="M1058.5,64.72 C1003.22,80.47 936.79,109.48 900.55,161.96 C851.14,233.5 868.455,341.5591 878.085,384.8791" fill="none" id="worker-to-adapterCaramel" style="stroke:#181818;stroke-width:1;stroke-dasharray:7,7;"/><polygon fill="#181818" points="879.17,389.76,881.1217,380.1065,878.085,384.8791,873.3123,381.8425,879.17,389.76" style="stroke:#181818;stroke-width:1;stroke-linejoin:miter;stroke-miterlimit:10;"/><text fill="#000000" font-family="sans-serif" font-size="13" lengthAdjust="spacing" textLength="114.3721" x="901.55" y="222.4884">invoca notifySale()</text></g><?plantuml-src fLRDRkCs4BxxAGO-9KPiItOIDmPQmAjrMWD1RDZfxh4OIsE7ZKHgASgxJb6W3z7Ns5DlU_MRz4awf2NBsZZO5hs9d6z-le_3eR8d8LFKc42AuHEkQM6sCO6cqA1SnzHegEMll83c4dKEGvXfjI6Ab6u2Pk0sVsi0I9KiDGKg8HqAZE5xQBv1lVlIP9lEGxlsRcxyNl_owdhWURxTnz28ZMAJqJarVgzI2Mbe_MQVRsA_DOP2oV5yvf9MPflPY5InnMO8flSFazj9CBNHIKQfOgWrF1gJPiDk5rFH2PKqOYL2nLz9DnEPeGIjfRlnkzOnZur8S25ag9KKp_lKduHH6TfOFQzttVO6xTu0_DxGlsuULnvQAIb-eLEv_ufKGM4Er6f5LDTiS7rrsU_v_qgpu93-DTc2eqAEb1lTpTvFxh-MxImJ4aQp2QIxByjOX0WidWf5XEV_HIWFl9kXtwi9jM8YIcyBeKH4UXHXQaZVxWskuW9KUU4UKxH6K9vauUfyZY0l_2fvHd7wKSWJVWMaSlsez1DfTgdpVE-sdUSUKNdGXgHHqoVs6RlFkgVpEM0Ev-0sh6ptKzV3e_alxyRt3oChT8hRM65ahTFvs_PUMC-x_AxdJYmp63dNsNmQZ1UZjwx_xN5po8mDFYzN53vYeCdLSAAFhsh7iw_l5kDOSEXl4Yc1_uVDbJ-eixaTtTrDNd3fVvlBfU-ukDdKQhUhUL5jbVetoejvm9KDS6oeaMmqojxjT7w0ur4L4vLtwYMcwhtNOFNc3fdUANCLno6AzhI0wahbMSrmr92fLY6TibP7VG9Ihqp8ZU9H81LVlkq2OpexFm6kwZo5R_2AOAcCKGceLNKU00k9QVQe34G4CGBg3xamt9IvHaZio6bpBw0q3ELfj18wuOpWChLQeVsEELtC0nA9CLbk6QL20UlTQdN0FKjM8ZS_Tf_j0Bc03pb1jlli-fSakQat7oyU859Xdd1nDl3VV_nf4-sBXSo6BzG2JfXgmIEzxDLEWoUf9Ksla2tR2M0SGoAoH34VJHSsmtvPYBgrCjWTB6w2Nk7pXINF526NbXXyFQaPUbP_LQ1RJBtpuH49N2jZmNr-yW-tR6lbOBx53NIyDo8JI_up8CdUxXPBZXAHvLsyT73sS-1xvs3_9-mVX9AXY0LVqjrVaZqIb3d65pR2XfxjyQQaUV1RUhOOxC0xdgC0Fx4o-BnMMNiYroG5QO5j9jV-aKz6CxbE4h7weGiCbvt-aTR_0000?></g></svg>