<svg xmlns="http://www.w3.org/2000/svg" xmlns:xlink="http://www.w3.org/1999/xlink" version="1.1" data-diagram-type="SEQUENCE" style="width:1678px;height:1229px;background:#FFFFFF;" width="1678px" height="1229px" viewBox="0 0 1678 1229" zoomAndPan="magnify" preserveAspectRatio="none" contentStyleType="text/css"><?plantuml 1.2026.7beta11?><defs/><g font-family="sans-serif" lengthAdjust="spacing"><g class="title" data-source-line="1"><text x="513.837" y="27.995" fill="#000" font-size="14" textLength="649.038" font-weight="700">Secuencia — Retirar y entregar almuerzo (UC5), con redención atómica del código</text></g><rect x="13" y="267.258" width="1645.713" height="850.664" fill="none" style="stroke:#000;stroke-width:1.5;"/><rect x="32" y="375.461" width="1601.713" height="728.461" fill="none" style="stroke:#000;stroke-width:1.5;"/><rect x="51" y="543.063" width="1557.713" height="546.859" fill="none" style="stroke:#000;stroke-width:1.5;"/><rect x="656.775" y="776.063" width="926.938" height="226.461" fill="none" style="stroke:#000;stroke-width:1.5;"/><g><title>Estudiante</title><rect x="63.5" y="123.594" width="8" height="1018.328" fill="#000" fill-opacity="0"/><line x1="67" y1="123.594" x2="67" y2="1141.922" style="stroke:#181818;stroke-width:0.5;stroke-dasharray:5,5;"/></g><g><title>Operador</title><rect x="305.356" y="123.594" width="8" height="1018.328" fill="#000" fill-opacity="0"/><line x1="308.856" y1="123.594" x2="308.856" y2="1141.922" style="stroke:#181818;stroke-width:0.5;stroke-dasharray:5,5;"/></g><g><title></title><rect x="303.856" y="167.859" width="10" height="964.063" fill="#FFF" style="stroke:#181818;stroke-width:1;"/></g><g><title>M.dulo de .rdenes</title><rect x="669.275" y="123.594" width="8" height="1018.328" fill="#000" fill-opacity="0"/><line x1="672.775" y1="123.594" x2="672.775" y2="1141.922" style="stroke:#181818;stroke-width:0.5;stroke-dasharray:5,5;"/></g><g><title></title><rect x="667.775" y="196.992" width="10" height="934.93" fill="#FFF" style="stroke:#181818;stroke-width:1;"/></g><g><title>Orden</title><rect x="925.13" y="123.594" width="8" height="1018.328" fill="#000" fill-opacity="0"/><line x1="928.63" y1="123.594" x2="928.63" y2="1141.922" style="stroke:#181818;stroke-width:0.5;stroke-dasharray:5,5;"/></g><g><title>CodigoRetiro</title><rect x="1016.009" y="123.594" width="8" height="1018.328" fill="#000" fill-opacity="0"/><line x1="1019.509" y1="123.594" x2="1019.509" y2="1141.922" style="stroke:#181818;stroke-width:0.5;stroke-dasharray:5,5;"/></g><g><title>RegistroAuditoria</title><rect x="1146.178" y="123.594" width="8" height="1018.328" fill="#000" fill-opacity="0"/><line x1="1149.678" y1="123.594" x2="1149.678" y2="1141.922" style="stroke:#181818;stroke-width:0.5;stroke-dasharray:5,5;"/></g><g><title>Cartilla</title><rect x="1275.079" y="123.594" width="8" height="1018.328" fill="#000" fill-opacity="0"/><line x1="1278.579" y1="123.594" x2="1278.579" y2="1141.922" style="stroke:#181818;stroke-width:0.5;stroke-dasharray:5,5;"/></g><text x="26.583" y="120.292" fill="#000" font-size="14" textLength="74.833">Estudiante</text><ellipse cx="67" cy="55.797" rx="8" ry="8" fill="#E2E2F0" style="stroke:#181818;stroke-width:0.5;"/><path d="M67,63.797 L67,90.797 M54,71.797 L80,71.797 M67,90.797 L54,105.797 M67,90.797 L80,105.797" style="stroke:#181818;stroke-width:0.5;" fill="none"/><text x="272.825" y="120.292" fill="#000" font-size="14" textLength="66.063">Operador</text><ellipse cx="308.856" cy="55.797" rx="8" ry="8" fill="#E2E2F0" style="stroke:#181818;stroke-width:0.5;"/><path d="M308.856,63.797 L308.856,90.797 M295.856,71.797 L321.856,71.797 M308.856,90.797 L295.856,105.797 M308.856,90.797 L321.856,105.797" style="stroke:#181818;stroke-width:0.5;" fill="none"/><rect x="597.618" y="76" width="150.315" height="46.594" fill="#E2E2F0" style="stroke:#181818;stroke-width:0.5;" rx="2.5" ry="2.5"/><text x="604.618" y="95.995" fill="#000" font-size="14" textLength="136.315">Módulo de Órdenes</text><text x="656.239" y="112.292" fill="#000" font-size="14" textLength="33.072">(API)</text><rect x="900.056" y="92.297" width="57.148" height="30.297" fill="#E2E2F0" style="stroke:#181818;stroke-width:0.5;" rx="2.5" ry="2.5"/><text x="907.056" y="112.292" fill="#000" font-size="14" textLength="43.148">Orden</text><rect x="967.204" y="92.297" width="104.61" height="30.297" fill="#E2E2F0" style="stroke:#181818;stroke-width:0.5;" rx="2.5" ry="2.5"/><text x="974.204" y="112.292" fill="#000" font-size="14" textLength="90.61">CodigoRetiro</text><rect x="1081.814" y="92.297" width="135.728" height="30.297" fill="#E2E2F0" style="stroke:#181818;stroke-width:0.5;" rx="2.5" ry="2.5"/><text x="1088.814" y="112.292" fill="#000" font-size="14" textLength="121.728">RegistroAuditoria</text><rect x="1227.542" y="76" width="102.074" height="46.594" fill="#E2E2F0" style="stroke:#181818;stroke-width:0.5;" rx="2.5" ry="2.5"/><text x="1253.655" y="95.995" fill="#000" font-size="14" textLength="49.848">Cartilla</text><text x="1234.542" y="112.292" fill="#000" font-size="14" textLength="88.074">«propuesta»</text><text x="26.583" y="1154.917" fill="#000" font-size="14" textLength="74.833">Estudiante</text><ellipse cx="67" cy="1166.719" rx="8" ry="8" fill="#E2E2F0" style="stroke:#181818;stroke-width:0.5;"/><path d="M67,1174.719 L67,1201.719 M54,1182.719 L80,1182.719 M67,1201.719 L54,1216.719 M67,1201.719 L80,1216.719" style="stroke:#181818;stroke-width:0.5;" fill="none"/><text x="272.825" y="1154.917" fill="#000" font-size="14" textLength="66.063">Operador</text><ellipse cx="308.856" cy="1166.719" rx="8" ry="8" fill="#E2E2F0" style="stroke:#181818;stroke-width:0.5;"/><path d="M308.856,1174.719 L308.856,1201.719 M295.856,1182.719 L321.856,1182.719 M308.856,1201.719 L295.856,1216.719 M308.856,1201.719 L321.856,1216.719" style="stroke:#181818;stroke-width:0.5;" fill="none"/><rect x="597.618" y="1141.922" width="150.315" height="46.594" fill="#E2E2F0" style="stroke:#181818;stroke-width:0.5;" rx="2.5" ry="2.5"/><text x="604.618" y="1161.917" fill="#000" font-size="14" textLength="136.315">Módulo de Órdenes</text><text x="656.239" y="1178.214" fill="#000" font-size="14" textLength="33.072">(API)</text><rect x="900.056" y="1141.922" width="57.148" height="30.297" fill="#E2E2F0" style="stroke:#181818;stroke-width:0.5;" rx="2.5" ry="2.5"/><text x="907.056" y="1161.917" fill="#000" font-size="14" textLength="43.148">Orden</text><rect x="967.204" y="1141.922" width="104.61" height="30.297" fill="#E2E2F0" style="stroke:#181818;stroke-width:0.5;" rx="2.5" ry="2.5"/><text x="974.204" y="1161.917" fill="#000" font-size="14" textLength="90.61">CodigoRetiro</text><rect x="1081.814" y="1141.922" width="135.728" height="30.297" fill="#E2E2F0" style="stroke:#181818;stroke-width:0.5;" rx="2.5" ry="2.5"/><text x="1088.814" y="1161.917" fill="#000" font-size="14" textLength="121.728">RegistroAuditoria</text><rect x="1227.542" y="1141.922" width="102.074" height="46.594" fill="#E2E2F0" style="stroke:#181818;stroke-width:0.5;" rx="2.5" ry="2.5"/><text x="1253.655" y="1161.917" fill="#000" font-size="14" textLength="49.848">Cartilla</text><text x="1234.542" y="1178.214" fill="#000" font-size="14" textLength="88.074">«propuesta»</text><polygon points="291.856,163.859,301.856,167.859,291.856,171.859,295.856,167.859" fill="#181818" style="stroke:#181818;stroke-width:1;stroke-linejoin:miter;stroke-miterlimit:10;"/><line x1="67" y1="167.859" x2="297.856" y2="167.859" style="stroke:#181818;stroke-width:1;"/><text x="74" y="147.661" fill="#000" font-size="13" textLength="164.836">presenta código de retiro</text><text x="74" y="162.793" fill="#000" font-size="13" textLength="212.856">(o datos para búsqueda manual)</text><polygon points="655.775,192.992,665.775,196.992,655.775,200.992,659.775,196.992" fill="#181818" style="stroke:#181818;stroke-width:1;stroke-linejoin:miter;stroke-miterlimit:10;"/><line x1="313.856" y1="196.992" x2="661.775" y2="196.992" style="stroke:#181818;stroke-width:1;"/><text x="320.856" y="191.926" fill="#000" font-size="13" textLength="301.755">buscarOrden(codigo | nombre/ID institucional)</text><polygon points="916.63,222.125,926.63,226.125,916.63,230.125,920.63,226.125" fill="#181818" style="stroke:#181818;stroke-width:1;stroke-linejoin:miter;stroke-miterlimit:10;"/><line x1="677.775" y1="226.125" x2="922.63" y2="226.125" style="stroke:#181818;stroke-width:1;"/><text x="684.775" y="221.059" fill="#000" font-size="13" textLength="231.854">buscar por código o criterio manual</text><polygon points="688.775,251.258,678.775,255.258,688.775,259.258,684.775,255.258" fill="#181818" style="stroke:#181818;stroke-width:1;stroke-linejoin:miter;stroke-miterlimit:10;"/><line x1="682.775" y1="255.258" x2="927.63" y2="255.258" style="stroke:#181818;stroke-width:1;stroke-dasharray:2,2;"/><text x="694.775" y="250.192" fill="#000" font-size="13" textLength="223.298">orden encontrada / no encontrada</text><path d="M13,267.258 L77.443,267.258 L77.443,274.391 L67.443,284.391 L13,284.391 L13,267.258" style="stroke:#000;stroke-width:1.5;" fill="#EEE"/><rect x="13" y="267.258" width="1645.713" height="850.664" fill="none" style="stroke:#000;stroke-width:1.5;"/><text x="28" y="280.325" fill="#000" font-size="13" textLength="19.443" font-weight="700">alt</text><text x="92.443" y="279.468" fill="#000" font-size="11" textLength="139.853" font-weight="700">[orden no encontrada]</text><polygon points="324.856,311.523,314.856,315.523,324.856,319.523,320.856,315.523" fill="#181818" style="stroke:#181818;stroke-width:1;stroke-linejoin:miter;stroke-miterlimit:10;"/><line x1="318.856" y1="315.523" x2="666.775" y2="315.523" style="stroke:#181818;stroke-width:1;stroke-dasharray:2,2;"/><text x="330.856" y="310.458" fill="#000" font-size="13" textLength="184.526">error "orden no encontrada"</text><line x1="13" y1="324.523" x2="1658.713" y2="324.523" style="stroke:#000;stroke-width:1;stroke-dasharray:2,2;"/><text x="18" y="336.734" fill="#000" font-size="11" textLength="120.635" font-weight="700">[orden encontrada]</text><polygon points="916.63,359.461,926.63,363.461,916.63,367.461,920.63,363.461" fill="#181818" style="stroke:#181818;stroke-width:1;stroke-linejoin:miter;stroke-miterlimit:10;"/><line x1="677.775" y1="363.461" x2="922.63" y2="363.461" style="stroke:#181818;stroke-width:1;"/><text x="684.775" y="358.395" fill="#000" font-size="13" textLength="73.125">leer estado</text><path d="M32,375.461 L96.443,375.461 L96.443,382.594 L86.443,392.594 L32,392.594 L32,375.461" style="stroke:#000;stroke-width:1.5;" fill="#EEE"/><rect x="32" y="375.461" width="1601.713" height="728.461" fill="none" style="stroke:#000;stroke-width:1.5;"/><text x="47" y="388.528" fill="#000" font-size="13" textLength="19.443" font-weight="700">alt</text><text x="111.443" y="387.671" fill="#000" font-size="11" textLength="145.965" font-weight="700">[estado != COMPRADO]</text><polygon points="324.856,434.859,314.856,438.859,324.856,442.859,320.856,438.859" fill="#181818" style="stroke:#181818;stroke-width:1;stroke-linejoin:miter;stroke-miterlimit:10;"/><line x1="318.856" y1="438.859" x2="666.775" y2="438.859" style="stroke:#181818;stroke-width:1;stroke-dasharray:2,2;"/><text x="330.856" y="418.661" fill="#000" font-size="13" textLength="31.986">error</text><text x="330.856" y="433.793" fill="#000" font-size="13" textLength="329.919">("ya fue entregada a las HH:MM" / código inválido)</text><line x1="32" y1="447.859" x2="1633.713" y2="447.859" style="stroke:#000;stroke-width:1;stroke-dasharray:2,2;"/><text x="37" y="460.07" fill="#000" font-size="11" textLength="150.165" font-weight="700">[estado == COMPRADO]</text><polygon points="1007.509,497.93,1017.509,501.93,1007.509,505.93,1011.509,501.93" fill="#181818" style="stroke:#181818;stroke-width:1;stroke-linejoin:miter;stroke-miterlimit:10;"/><line x1="677.775" y1="501.93" x2="1013.509" y2="501.93" style="stroke:#181818;stroke-width:1;"/><text x="684.775" y="481.731" fill="#000" font-size="13" textLength="136.443">invalidarSiNoUsado()</text><text x="684.775" y="496.864" fill="#000" font-size="13" textLength="214.563">UPDATE ... WHERE usado = false</text><polygon points="688.775,527.063,678.775,531.063,688.775,535.063,684.775,531.063" fill="#181818" style="stroke:#181818;stroke-width:1;stroke-linejoin:miter;stroke-miterlimit:10;"/><line x1="682.775" y1="531.063" x2="1018.509" y2="531.063" style="stroke:#181818;stroke-width:1;stroke-dasharray:2,2;"/><text x="694.775" y="525.997" fill="#000" font-size="13" textLength="94.415">filas afectadas</text><path d="M51,543.063 L115.443,543.063 L115.443,550.195 L105.443,560.195 L51,560.195 L51,543.063" style="stroke:#000;stroke-width:1.5;" fill="#EEE"/><rect x="51" y="543.063" width="1557.713" height="546.859" fill="none" style="stroke:#000;stroke-width:1.5;"/><text x="66" y="556.129" fill="#000" font-size="13" textLength="19.443" font-weight="700">alt</text><text x="130.443" y="555.273" fill="#000" font-size="11" textLength="125.426" font-weight="700">[filas afectadas = 0]</text><path d="M682.775,575.195 L682.775,660.195 L939.775,660.195 L939.775,585.195 L929.775,575.195 L682.775,575.195" style="stroke:#181818;stroke-width:0.5;" fill="#FEFFDD"/><path d="M929.775,575.195 L929.775,585.195 L939.775,585.195 L929.775,575.195" style="stroke:#181818;stroke-width:0.5;" fill="#FEFFDD"/><text x="688.775" y="592.262" fill="#000" font-size="13" textLength="236.05">Condición de carrera: otro Operador</text><text x="688.775" y="607.395" fill="#000" font-size="13" textLength="203.049">ya redimió este código entre la</text><text x="688.775" y="622.528" fill="#000" font-size="13" textLength="207.441">lectura del estado y este punto.</text><text x="688.775" y="637.661" fill="#000" font-size="13" textLength="207.771">Mismo principio de bloqueo que</text><text x="688.775" y="652.793" fill="#000" font-size="13" textLength="143.914">el stock en la compra.</text><polygon points="324.856,682.992,314.856,686.992,324.856,690.992,320.856,686.992" fill="#181818" style="stroke:#181818;stroke-width:1;stroke-linejoin:miter;stroke-miterlimit:10;"/><line x1="318.856" y1="686.992" x2="666.775" y2="686.992" style="stroke:#181818;stroke-width:1;stroke-dasharray:2,2;"/><text x="330.856" y="681.926" fill="#000" font-size="13" textLength="154.356">error "código ya usado"</text><line x1="51" y1="695.992" x2="1608.713" y2="695.992" style="stroke:#000;stroke-width:1;stroke-dasharray:2,2;"/><text x="56" y="708.203" fill="#000" font-size="11" textLength="125.426" font-weight="700">[filas afectadas = 1]</text><polygon points="916.63,730.93,926.63,734.93,916.63,738.93,920.63,734.93" fill="#181818" style="stroke:#181818;stroke-width:1;stroke-linejoin:miter;stroke-miterlimit:10;"/><line x1="677.775" y1="734.93" x2="922.63" y2="734.93" style="stroke:#181818;stroke-width:1;"/><text x="684.775" y="729.864" fill="#000" font-size="13" textLength="182.958">marcarEntregado(operador)</text><polygon points="1137.678,760.063,1147.678,764.063,1137.678,768.063,1141.678,764.063" fill="#181818" style="stroke:#181818;stroke-width:1;stroke-linejoin:miter;stroke-miterlimit:10;"/><line x1="677.775" y1="764.063" x2="1143.678" y2="764.063" style="stroke:#181818;stroke-width:1;"/><text x="684.775" y="758.997" fill="#000" font-size="13" textLength="258.915">registrar("marcarEntregado", operador)</text><path d="M656.775,776.063 L726.227,776.063 L726.227,783.195 L716.227,793.195 L656.775,793.195 L656.775,776.063" style="stroke:#000;stroke-width:1.5;" fill="#EEE"/><rect x="656.775" y="776.063" width="926.938" height="226.461" fill="none" style="stroke:#000;stroke-width:1.5;"/><text x="671.775" y="789.129" fill="#000" font-size="13" textLength="24.451" font-weight="700">opt</text><text x="741.227" y="788.273" fill="#000" font-size="11" textLength="253.107" font-weight="700">[el local tiene ProgramaFidelidad activo]</text><polygon points="1266.579,820.328,1276.579,824.328,1266.579,828.328,1270.579,824.328" fill="#181818" style="stroke:#181818;stroke-width:1;stroke-linejoin:miter;stroke-miterlimit:10;"/><line x1="677.775" y1="824.328" x2="1272.579" y2="824.328" style="stroke:#181818;stroke-width:1;"/><text x="684.775" y="819.262" fill="#000" font-size="13" textLength="138.087">acreditarSello(orden)</text><path d="M1283.579,837.328 L1283.579,968.328 L1562.579,968.328 L1562.579,847.328 L1552.579,837.328 L1283.579,837.328" style="stroke:#181818;stroke-width:0.5;" fill="#FEFFDD"/><path d="M1552.579,837.328 L1552.579,847.328 L1562.579,847.328 L1552.579,837.328" style="stroke:#181818;stroke-width:0.5;" fill="#FEFFDD"/><text x="1289.579" y="854.395" fill="#000" font-size="13" textLength="227.284">Propuesta (28-jul-2026). El sello se</text><text x="1289.579" y="869.528" fill="#000" font-size="13" textLength="241.363">acredita aquí, en la entrega, no en la</text><text x="1289.579" y="884.661" fill="#000" font-size="13" textLength="258.134">compra. Sello->Orden es único, así que</text><text x="1289.579" y="899.793" fill="#000" font-size="13" textLength="242.842">un reintento no acredita dos veces, y</text><text x="1289.579" y="914.926" fill="#000" font-size="13" textLength="241.858">maxSellosPorDia limita el acumulado</text><text x="1289.579" y="930.059" fill="#000" font-size="13" textLength="214.621">diario. Si con este sello la cartilla</text><text x="1289.579" y="945.192" fill="#000" font-size="13" textLength="233.27">se completa, pasa a COMPLETA y el</text><text x="1289.579" y="960.325" fill="#000" font-size="13" textLength="229.614">estudiante ve el premio disponible.</text><polygon points="688.775,990.523,678.775,994.523,688.775,998.523,684.775,994.523" fill="#181818" style="stroke:#181818;stroke-width:1;stroke-linejoin:miter;stroke-miterlimit:10;"/><line x1="682.775" y1="994.523" x2="1277.579" y2="994.523" style="stroke:#181818;stroke-width:1;stroke-dasharray:2,2;"/><text x="694.775" y="989.458" fill="#000" font-size="13" textLength="173.145">sellosAcumulados / estado</text><polygon points="324.856,1048.789,314.856,1052.789,324.856,1056.789,320.856,1052.789" fill="#181818" style="stroke:#181818;stroke-width:1;stroke-linejoin:miter;stroke-miterlimit:10;"/><line x1="318.856" y1="1052.789" x2="666.775" y2="1052.789" style="stroke:#181818;stroke-width:1;stroke-dasharray:2,2;"/><text x="330.856" y="1032.59" fill="#000" font-size="13" textLength="84.456">confirmación</text><text x="330.856" y="1047.723" fill="#000" font-size="13" textLength="215.128">(+ estado de la cartilla, si aplica)</text><polygon points="78,1077.922,68,1081.922,78,1085.922,74,1081.922" fill="#181818" style="stroke:#181818;stroke-width:1;stroke-linejoin:miter;stroke-miterlimit:10;"/><line x1="72" y1="1081.922" x2="302.856" y2="1081.922" style="stroke:#181818;stroke-width:1;"/><text x="84" y="1076.856" fill="#000" font-size="13" textLength="211.187">entrega físicamente el almuerzo</text><?plantuml-src TLRDRjj64BxpAQOwIQYaf0PQ14OYGB1LE41T2qwCNdmPaIDrsoMNsLqQTT53tw5zWJo0JxxboZVfa_JRvPzenpp8NExiDpFVV3DhhxmM-Y1f9KMgcFxx-r-w5gyiMxedARoL0rvPvvNOFmrDRyw-dyqfDGLPoSAP-h4WzlLZhbAcJ3IbzMEc3YP9EFN6qiRvAbDSU6a_N9LYEJCsATbwbQeIUpIvnAbA6o1G_Oy5ihZROhhUlfzDY1tXPMn_5MpYLdmRRvwP447CmqIRviFOw5eEodbhrWWFSIbk78NL4xImq9flYxTlIslAIfpdrQe1RlUIPCYJ5gi-IJgbqee3aTmH4rAqCJGaY1LxumWEcNRr5_Ufaemfvw9YFGkCgJi6P4zQqYF32rY1WrtbKhQHXcaQ4wM_g33vpighz-Ua2kULhr9bYX5ae3G9227SSBY7eXBmNRI6KgkyM6NQg9B6UD7xDt4DBHZ8XH7zAtW_MaC9shTMumsA28inNs8j_aw-OZz9H3jvvg-36TBG8fP2bJA3pU2zMT0tx-Ziwd9xlJw_miRBxb6PoJtJlfAk1v0MaqR5BovEBoydoB4ZI1LtzMUjCZC3P0omTVRkQyvMhHRX2GSPvzX-K3-R6uSZqzbjSRCzNt_Sq7Avf5ykDjSRgbm4epq3EmAr24C5zYf4ndj9uPXT4gr2saysWF8wxX68XGIiEloAokoZ5gXzpaoHgQQleLJ8mO8RL1cjCiYmCmP9c0CgXtb8MtfM8cqWhBVKYA6opOXe2RflZfHLuSsoDxnKBZVe6eNXKghOBZjjq1U6yDER0SPva_uEJt23YPINbZiKARAOORjyMMLTkCWZyZn96cnKyJbttnt33MhBsOAbJQiJCpMjbzdOF4uMcDjcxh2TJfwSdCnfEDiUDgKFgMgJiYQlC1TfQyt1Siu_Ad09_MGKUzhqr7H2QsSJV78QgkGXDT4Q4OR8PxtzM0lzIAF-sNPJZwOdRnQ_LNfnylhaXzcIDYX2G2GdH-QTD-9FLVqmRolKDjAywMaQEMYhHp6ynQfXLXpLNmgLcZacRVqmgZvH5MuWXN4ByGJ8tcc6SNedgRWvtH_Pv_n7H7TROyznqsc85jRWbjCghtGpAxe7anmJ3m6fUDT5dJQP1gqzPmXw2JbeyKYmP1UcHMZ-dpOVrq7d-iXMXflYJa80k27o87JbIbEedPQX6Pu8cOQY3jqVutBhBWk7sTJFlXOZURaHaDvUsPnZnsFkVTjrPoR7kSx9AU9IuvRlX7Dy4ntTVgTTfMbVFpZOvn8-1wBR_oAIBghcDyQNoUXYEbfsRlu7?></g></svg>